<?xml version="1.0" encoding="UTF-8"?>
<svg xmlns="http://www.w3.org/2000/svg" xmlns:xlink="http://www.w3.org/1999/xlink" viewBox="0 0 2247 2247">
  <defs>
    <style>
      .uuid-add0422b-5f04-4344-bd35-01a2d704250e {
        isolation: isolate;
      }

      .uuid-7b59c5a6-d72e-45eb-af58-3e1abf624091 {
        fill: #c13d2f;
      }

      .uuid-7b59c5a6-d72e-45eb-af58-3e1abf624091, .uuid-4049694f-3f07-4473-86d0-2f9473ca4cf9, .uuid-f73041e7-8184-48d5-b8e7-a43898dfd758, .uuid-99081810-0c04-41f3-a3b3-f0aa64c011c2, .uuid-a8135a37-339d-4e6e-b8ad-37a4c644d324, .uuid-a080f403-265e-4bcc-9f14-189f51461b8e, .uuid-becb5deb-a3cd-4c71-8d2f-a1ee878e3d4f, .uuid-16d29dea-8424-42ce-b90a-1658d6e536c9, .uuid-a0ce45fa-fa76-422f-a1ee-07ed2e77d576, .uuid-3e96d27f-329d-43c0-9412-39761597b2f4, .uuid-84cb7e16-42ca-4e7d-a5d3-3e42e807456b, .uuid-d38dae41-1edd-4f5b-b88b-bf889d5177f0, .uuid-94e48fa1-321b-4e2b-9a93-a4407d96b651, .uuid-d4f18ec5-f9bb-4de3-b043-03d6e5184b5c {
        stroke-width: 0px;
      }

      .uuid-4049694f-3f07-4473-86d0-2f9473ca4cf9 {
        fill: #81b6e3;
      }

      .uuid-f73041e7-8184-48d5-b8e7-a43898dfd758 {
        fill: none;
      }

      .uuid-980edb9e-9dcb-457a-96dd-77b58adbc0fe, .uuid-a080f403-265e-4bcc-9f14-189f51461b8e, .uuid-3e96d27f-329d-43c0-9412-39761597b2f4 {
        fill: #f09073;
      }

      .uuid-99081810-0c04-41f3-a3b3-f0aa64c011c2 {
        fill: #fff;
      }

      .uuid-a8135a37-339d-4e6e-b8ad-37a4c644d324 {
        fill: #404069;
      }

      .uuid-a080f403-265e-4bcc-9f14-189f51461b8e {
        mix-blend-mode: multiply;
        opacity: .5;
      }

      .uuid-8eafbc64-1e22-431a-8cb3-79f664b1ceb3 {
        clip-path: url(#uuid-7c46ccef-4c9f-4038-bbb7-00d96a5c4e88);
      }

      .uuid-becb5deb-a3cd-4c71-8d2f-a1ee878e3d4f {
        fill: #a4c9f6;
      }

      .uuid-16d29dea-8424-42ce-b90a-1658d6e536c9 {
        fill: #cfccdf;
      }

      .uuid-a0ce45fa-fa76-422f-a1ee-07ed2e77d576 {
        fill: #f4d5b5;
      }

      .uuid-84cb7e16-42ca-4e7d-a5d3-3e42e807456b {
        fill: #e9553d;
      }

      .uuid-d38dae41-1edd-4f5b-b88b-bf889d5177f0 {
        fill: #061735;
      }

      .uuid-94e48fa1-321b-4e2b-9a93-a4407d96b651 {
        fill: #f7c07a;
      }

      .uuid-d4f18ec5-f9bb-4de3-b043-03d6e5184b5c {
        fill: #254c8b;
      }

      .uuid-0783ebf6-a6ec-4ece-9ede-e15f549ebbc9 {
        clip-path: url(#uuid-f31709b1-4ca6-444e-a69e-ba045ee8cb35);
      }

      .uuid-2f512d02-1216-4833-a8d7-eea1fa921053 {
        clip-path: url(#uuid-88cbf862-6e69-441c-b56a-ad3071b440c1);
      }
    </style>
    <clipPath id="uuid-88cbf862-6e69-441c-b56a-ad3071b440c1">
      <path class="uuid-f73041e7-8184-48d5-b8e7-a43898dfd758" d="m1771.96,1083.71c0-82.58,13.81-130.39-16.12-167.34-29.96-36.92-76.04-10.85-76.04-10.85,0,0-50.7,17.38-80.66,23.89-10.07,2.2-17.53,10.27-22.57,19.14-10.25,11.22-14.13,34.26-23.5,91.67-13.81,84.76-62.2,145.6-62.2,171.67s2.31,49.99,9.22,58.68c6.9,8.69,25.34-6.54,43.77-26.1,12.32-13.05,45.18-54.23,71.12-89.84,20.95,14.65,40.66,38.15,53.22,54.88.05,4.96.08,10.12.08,15.43,0,20.63-.5,33.33-1.16,41.09,17.92-9.31,37.78-15.04,56.5-23.35,24.26-10.77,44.65-28.27,71.03-33.37-40.19-47.22-22.69-49.69-22.69-125.62Z"/>
    </clipPath>
    <clipPath id="uuid-7c46ccef-4c9f-4038-bbb7-00d96a5c4e88">
      <path class="uuid-3e96d27f-329d-43c0-9412-39761597b2f4" d="m678.44,783.55c-.32-.42-.64-.83-.96-1.24.15-.86.29-1.73.46-2.58,2.26-11.51,1.67-31.98,1.17-36.21-1.68-14.14-15.94-40.68-15.94-40.68l-49.42,19.06-28.97,30.32s-33.94,47-34.77,49.28c-.83,2.27-9.11,24.26-9.11,24.26,0,0,13.74,26.86-15.47,46.48-13.61,9.14,41.13-1.75,58.51,24.78,7.83,11.95,10.95,17.12,12.02,19.21,4.23-4.86,22.85-55.72,32.16-58.56,9.91-3.03,37-3.92,40.38-12.86,4.41-11.67,5.3-25.8,6.43-40.15,5.66-.24,13.1-.88,13.77-3.7,1.28-5.4-7.28-13.48-10.27-17.41Z"/>
    </clipPath>
    <clipPath id="uuid-f31709b1-4ca6-444e-a69e-ba045ee8cb35">
      <path class="uuid-f73041e7-8184-48d5-b8e7-a43898dfd758" d="m814.39,1124.08c-1.11-15.12-8.04-30.9-10.29-32.88-2.68-2.35-50.4-12.23-84.27-18.53,3.77-36.65,11.36-115.43,7.68-121.66-4.82-8.14-45.26-10.85-45.26-10.85l-19.33,73.95c-4.15-10.11-8.17-20.75-11.46-31.06-7.62-23.85-21.89-43.65-34.99-56.82-1.2-10.03-2.98-20.26-4.49-28.13-1.68-8.72-7.88-16.06-16.51-19.63l-44.82-18.52c-9.06-3.74-19.51-2.81-27.64,2.49-20.56,13.41-59.52,43.7-85.36,94.01-60.6,118.02-103.95,318.16-45.48,318.25,22.17.03,189.79,32.54,186.9-9.07-2.87-41.3,1.05-96.72,3.93-136.45.04-.6.06-1.19.06-1.8v-1.33c0-.93.05-1.83.15-2.75.46-4.11,1.92-16.97,3.94-31.95,15.07,17.71,28.03,31.5,34.4,35.53,16.42,10.37,120.87,16.93,169.46,19.46,13.34.69,24.3-9.74,23.38-22.26Z"/>
    </clipPath>
  </defs>
  <g class="uuid-add0422b-5f04-4344-bd35-01a2d704250e">
    <g id="uuid-8b6fe586-3e71-494f-aead-c22a504c7ac0" data-name="&amp;lt;Layer&amp;gt;">
      <rect class="uuid-99081810-0c04-41f3-a3b3-f0aa64c011c2" width="2247" height="2247"/>
      <g>
        <g>
          <g>
            <rect class="uuid-d38dae41-1edd-4f5b-b88b-bf889d5177f0" x="1749.26" y="1434.76" width="38.98" height="485.96"/>
            <ellipse class="uuid-d38dae41-1edd-4f5b-b88b-bf889d5177f0" cx="1765.31" cy="1921.9" rx="60.76" ry="14.16"/>
            <g>
              <path class="uuid-d38dae41-1edd-4f5b-b88b-bf889d5177f0" d="m1840.17,1479.84h-134.49c-8.22-4.15-14.89-10.81-14.89-19.03v-23.49c0-8.22,6.66-14.89,14.89-14.89h134.49c8.22,0,14.89,6.66,14.89,14.89v23.49c0,8.22-6.66,14.89-14.89,19.03Z"/>
              <path class="uuid-a0ce45fa-fa76-422f-a1ee-07ed2e77d576" d="m1862.44,1458.74h-187.39c-14.37,0-26.02-11.92-26.02-26.63s11.65-26.63,26.02-26.63h187.39c14.37,0,26.02,11.92,26.02,26.63s-11.65,26.63-26.02,26.63Z"/>
            </g>
          </g>
          <g>
            <rect class="uuid-d38dae41-1edd-4f5b-b88b-bf889d5177f0" x="468.86" y="1434.76" width="38.98" height="485.96"/>
            <ellipse class="uuid-d38dae41-1edd-4f5b-b88b-bf889d5177f0" cx="484.9" cy="1921.9" rx="60.76" ry="14.16"/>
            <g>
              <path class="uuid-d38dae41-1edd-4f5b-b88b-bf889d5177f0" d="m559.77,1479.84h-134.49c-8.22-4.15-14.89-10.81-14.89-19.03v-23.49c0-8.22,6.66-14.89,14.89-14.89h134.49c8.22,0,14.89,6.67,14.89,14.89v23.49c0,8.22-6.66,14.89-14.89,19.03Z"/>
              <path class="uuid-a0ce45fa-fa76-422f-a1ee-07ed2e77d576" d="m582.04,1458.74h-187.39c-14.37,0-26.02-11.92-26.02-26.63s11.65-26.63,26.02-26.63h187.39c14.37,0,26.02,11.92,26.02,26.63s-11.65,26.63-26.02,26.63Z"/>
            </g>
          </g>
          <g>
            <polygon class="uuid-d38dae41-1edd-4f5b-b88b-bf889d5177f0" points="1128.38 1904.8 1092.59 1904.8 1090.67 1271.21 1130.55 1271.21 1128.38 1904.8"/>
            <g>
              <path class="uuid-d38dae41-1edd-4f5b-b88b-bf889d5177f0" d="m1407.93,1309.41h-591.6c-12.62-2.07-22.84-14.34-22.84-29.48s10.23-27.4,22.84-27.4h591.6c12.62,0,22.84,12.27,22.84,27.4s-10.23,27.4-22.84,29.48Z"/>
              <path class="uuid-a0ce45fa-fa76-422f-a1ee-07ed2e77d576" d="m1445.89,1289.9h-667.52c-12.62,0-22.84-12.27-22.84-27.4s10.23-27.4,22.84-27.4h667.52c12.62,0,22.84,12.27,22.84,27.4s-10.23,27.4-22.84,27.4Z"/>
            </g>
            <path class="uuid-d38dae41-1edd-4f5b-b88b-bf889d5177f0" d="m1255.75,1917.27c0,10.38-64.12,18.8-143.21,18.8s-143.21-8.41-143.21-18.8,64.12-18.79,143.21-18.79,143.21,8.41,143.21,18.79Z"/>
          </g>
        </g>
        <g id="uuid-05ac2e0e-b21f-48e9-b080-9fc8675f3e58" data-name="poster">
          <rect class="uuid-a0ce45fa-fa76-422f-a1ee-07ed2e77d576" x="935.46" y="385.83" width="350.83" height="438.74" rx="9.16" ry="9.16"/>
          <g>
            <path class="uuid-d38dae41-1edd-4f5b-b88b-bf889d5177f0" d="m1245.42,495.04c-.25-.02-.57.06-.97.28-1.89,1.03-12.97,8.03-19.66,9.67-.4.1-.44-1.73-.54-2.13-.99-3.74-3.27-6.28-6.94-7.48-3.67-1.2-8.67-1.22-12.35-.05-8.07,2.56-14.48,7.79-18.28,15.38-1.76,3.52-2.93,7.31-3.68,11.16-.36,1.88-.62,3.78-.81,5.68-.17,1.71.24,3.31-.99,4.66-1.25,1.37-3.69,4.07-5.09,5.35-4.27,3.9-8.79,8.07-15.26,7.06-.52-.08-1.05-.22-1.47-.53-1.42-1.04-1.37-4.05-1.59-5.64-.35-2.48-.58-4.98-.65-7.49-.06-2.18-.76-5.15.16-7.16.54-1.19,1.42-2.19,2.28-3.19,7.17-8.35,13.32-17.65,17.84-27.71,4.26-9.48,7.93-20.77,7.72-31.29-.06-3.28-1.02-6.63-4.62-8.4-1.72-.84-3.67-1.06-5.55-.74-4.76.82-8.2,4.36-10.78,8.22-4.06,6.06-7.85,12.49-10.76,19.18-4.51,10.35-7.27,21.46-8.1,32.73-.13,1.8-.22,3.61-.25,5.41-.03,1.87-.01,3.74.06,5.6.06,1.49.29,4.94.29,4.94q-3.18,4.16-5.5,6.64c-2.09,2.23-6.9,6.61-9.62,8.02-1.95,1.01-4.15,1.52-6.34,1.49-.78-.01-1.59-.1-2.27-.49-.81-.47-1.33-1.3-1.72-2.15-1.41-3.05-1.49-6.52-1.55-9.88-.06-3.26.29-14.71.51-17.31.3-3.36,3.75-6.97,5.38-9.8,2.61-4.54,5.53-8.9,8.07-13.49,4.48-8.09,18.96-37.76,3.14-42.16-1.28-.36-2.66-.48-3.94-.12-4.16,1.19-7.07,7.26-9.15,10.65-2.95,4.78-5.54,9.8-7.65,15.01-4.44,10.94-5.16,22.34-6.06,33.95-.15,1.93-.38,3.85-.62,5.77-.07.52-.38,3.84-.4,4.98,0,.46-.15.92-.44,1.28-.32.38-.55.82-.82,1.23-5.25,7.82-11.9,16.28-20.31,20.63-1.3.67-2.74,1.06-4.21,1.04-3.98-.06-5.54-2.81-6.41-5.58-.54-1.71-1.64-6.77-1.44-7.46.33-1.15.06-1.56.75-2.56.8-1.16,5.29-6.82,6.32-8.72,2.08-3.84,4.17-7.7,5.52-11.85,1.79-5.49,3.48-16.93-5.31-17.11-6.04-.12-14.86,1.43-17.79,16.83-3.1,16.29-.94,23.66-.93,23.71,1.42,8.02-10.28,11.22-14.31,8.72-5.32-3.3-3.23-12.47-2.34-17.36,1.41-7.73,4.01-15.32,4.12-23.24.06-4.35-.33-8.14-4.11-10.78-3.1-2.16-7.23-3.27-10.84-2.18-5.68,1.72-9.04,7.18-13.08,16.27-3.19,7.16-5.05,14.52-5.39,14.43-.67-1.77,2.01-22.58,2.89-27.35.12-.63,9.53-8.7,11.22-10.48,9.11-9.59,12.36-22.66,9.17-35.51-1.01-4.07-2.63-8.14-6.19-10.72-1.29-.93-2.78-1.56-4.37-1.71-6.09-.6-9.71,5.09-11.88,10.26-4.97,11.85-5.68,23.83-7.78,36.25-.29,1.73-.51,3.47-.64,5.23-.16,2.05-.02,4.18-1.95,5.29-7.62,4.36-17.27,5.83-22.84,12.61-5.09,6.2-5.1,15.64-1.1,22.59,2.44,4.23,3.75,6.1,3.37-.05-.22-3.58-2.52-6.9-2.65-10.48-.17-4.88,2.78-9.45,6.62-12.47,3.94-3.09,11.76-4.5,16.31-6.24.28-.11.6-.1.86.05.38.23.33.62.27.96-1.03,5.85-.94,11.75-1.36,17.66-.54,6.34-1.25,12.67-1.55,19.04-.3,6.43-.53,12.87-.7,19.31-.02.92-.28,3-.46,5.38.39,2.86.85,5.75,2.03,8.29,4.19,1.94,8.32.19,11.33-3.01.02-.47.04-.93.05-1.4.08-2.92-.14-5.84-.04-8.76.04-1.24.16-2.42.36-3.57-.71-11.8,4.08-23.55,9.05-34.46,2.89-6.36,5.88-12.7,9.48-18.7.65-1.08,1.67-1.9,2.89-2.19,2.08-.51,3.04.74,3.72,2,2.64,4.88,2.37,10.83,1.18,16.25-1.19,5.42-3.21,10.67-3.88,16.18-.73,6.02-2.02,14.05,2.75,17.8,7.83,6.16,15.22-.59,21.24-5.87,1.83,2.47,2.33,3.75,3.88,5.37,5.01,5.24,13.93,5.3,20.39,3.18,3.85-1.26,7.37-3.48,10.19-6.38,2.9-2.98,5.88-6.14,7.7-9.93.1-.21,1.18-1.62,1.4-1.71.32-.13.32,7.11,2.26,10.79,2.65,5.01,7.6,9.25,13.25,9.66,4.14.3,8.14-1.69,11.41-4.24,2.47-1.92,4.77-4.06,6.95-6.31.83-.85,1.12-1.37,5.07-4.23.44-.32.8-.14.79.4-.06,3.89,1.69,7.76,4.62,10.31,3.88,3.38,8.86,3.73,13.72,2.85,5.13-.93,9.25-3.12,13.04-6.57,1.23-1.12,2.35-2.7,3.82-3.48-.53.28,1.3,4.22,1.54,4.65,1.83,3.31,5.17,5.82,8.73,7.05,3.25,1.12,6.91,1.15,10.09-.15,6.45-2.64,10.29-8.97,13.13-14.98,1.88-3.97,3.47-8.07,4.78-12.27.67-2.14,1.26-4.31,1.77-6.49.23-.98.44-4.96,1.28-5.55,4.59-3.25,12.37-4.96,18.6-9.06,1.44-.94,2.85-2.31,3.47-3.95.4-1.06.56-2.98-.51-3.06Zm-87.61,16.82c-.37-.19.31-4.33.71-5.89.57-2.21,1.18-4.42,1.83-6.61,1.29-4.37,2.72-8.7,4.31-12.97,3.18-8.55,13.85-27.95,14.1-27.39.25.56,0,3.7-.07,4.31-1.85,14.95-7.1,29.47-15.19,42.17-.81,1.28-1.66,2.54-2.53,3.77-.54.77-2.81,2.78-3.17,2.61Zm-37.76-10.44c1.2-15.65,6-32.02,16.2-44.25,1.37,4.51.41,9.39-.98,13.9-3.3,10.75-8.81,22.17-15.34,31.28.04-.31.1-.62.12-.93Zm-98.62-22.97c-.08-.61.09-1.54.19-2.2.34-2.23.69-4.47,1.03-6.7,1.32-8.58,2.93-17.12,5.01-25.54.55-2.21,1.24-8.49,4.06-4.61,1.31,1.8,1.39,4.53,1.94,6.62,1.23,4.68,1.4,9.64.42,14.38-1.45,7.04-5.4,13.54-10.98,18.06-1.17.95-1.58.67-1.67,0Zm51.65,45.81c-1.01-7.27,2.47-20.95,7.68-25.58.77-.69,2.17-1.1,2.18-.73.13,4.59-1.02,9.07-2.7,13.31-1.29,3.24-4.89,10.63-7.16,13Zm137.71-23.64c-.44-1.22,4.22-.14,5.57.8,1.07.74,5.49,4.77,2.54,4.68-.49-.01-2,.07-2.48.02-1.34-.15-2.83-1.07-3.73-2.08-1.15-1.29-.95-.82-1.9-3.41Zm7.63,13.88c-2.79,9.72-6.37,19.8-14.06,26.72-1.46,1.32-3.15,2.51-5.09,2.82-2.87.46-4.83-1.19-5.45-3.85-2.15-9.2,1.35-19.35,4.64-27.88,1.19-3.09,2.86-6.09,5.44-8.16.6-.48,1.3-.93,2.08-.93,1.46,0,2.3,1.67,3.02,2.69.94,1.34,1.98,2.76,3.47,3.42,1.52.68,3.14,1.13,4.82,1.03,1.89-.11,1.97,1.14,1.55,2.64-.14.5-.28,1-.42,1.49Z"/>
            <path class="uuid-d38dae41-1edd-4f5b-b88b-bf889d5177f0" d="m1178.18,628.3c-2.2-5.02-4.52-11.05-7.99-15.34-3.63-4.49-41.11-4.98-48.97-5.01-1.34,0-3.28.02-5.56.08-2.28-.05-4.22-.08-5.56-.08-7.86.03-45.34.52-48.97,5.01-3.47,4.29-5.79,10.33-7.99,15.34-.03.07-4.57,9.36,1.36,11.92,3.68,1.59,7.85.7,10.07,4.85,2.63,4.95,2.41,11.1,3.67,16.45,1.86,7.92,3.73,15.85,5.41,23.81,3.36,15.89,6.02,31.99,6.46,48.26.14,5.09-.26,10.27.15,15.35.41,5.13,1.56,9.54,1.06,14.8-.65,6.89,22.46,8,34.34,7.72,11.88.28,34.99-.83,34.34-7.72-.5-5.26.65-9.67,1.06-14.8.4-5.08,0-10.26.15-15.35.44-16.26,3.1-32.37,6.46-48.26,1.68-7.96,3.55-15.89,5.41-23.81,1.26-5.35,1.03-11.5,3.67-16.45,2.21-4.16,6.39-3.26,10.07-4.85,5.93-2.56,1.39-11.86,1.36-11.92Zm-30.5,68.24c-3.16,16.69-29.96,17.81-42.78,16.18-18.35-2.32-31.06-20.04-25.05-39.15.38-1.2,71.55-.24,71.63,0,2.21,7.08-2.49,16.04-3.8,22.97Zm23.62-63.47c-1.03,1.38-3.35,1.45-7.88,2.12-18.07,2.66-36.4,1.8-54.58,1.17-16.12-.56-33.77,1.66-49.41-2.88-.65-.19-1.28-.41-1.88-.67,2.69-5.99,5.28-17.01,13.39-17.13,27.39-.42,54.88,1.9,82.48.59,3.69-.18,7.51-.35,10.95,1.02,3.56,1.42,7.32,6.65,7.58,10.54.18,2.76.07,4.3-.64,5.25Z"/>
          </g>
        </g>
        <g>
          <g>
            <g id="uuid-f2d46b3b-833a-4cf3-8e6d-bfe1e219da4d" data-name="cup">
              <path class="uuid-d38dae41-1edd-4f5b-b88b-bf889d5177f0" d="m1312.3,1050.53c.89,1.2,2.05,2.35,3.45,3.38,10.89,8.11,45.61,18.07,55.52,5.01.11-.14.21-.31.31-.45,0-.02.02-.03.02-.05,2.75-1.02,5.81-2.15,9.22-3.26,6.76-2.21,14.13-3.4,20.71-6.26,2.18-.96,4.27-2.1,6.22-3.51,9.46-6.89,15.16-20.2,13.72-31.94-.1-.88-.25-1.73-.44-2.58-3.81-17.34-21.47-20.25-36.31-23.11l-6.9-1.34c-12.74-2.46-36.86-7.11-48.26-9.31-4.01-.78-8.01,1.43-9.47,5.24-1.86,4.81-3.62,10.68-4.35,13.15-4.42,14.99-12.52,43.25-3.45,55.03Zm64.47-8.83s-.09-.02-.11,0c-.02,0-.16,0-.18.02,0-.03-.17-.07-.23-.09,0-.03-.21-.09-.21-.12v-.03s.63,0,.63-.02c.34-1.17,1.07-2.28,1.42-3.45,0-.02.03-.05.03-.06.12-.41.35-.8.47-1.21,1.74-6.09,3.45-12.22,4.99-18.36.9-3.63,2.04-7.26,2.61-10.99.05-.4.29-.74.33-1.15v-.05c.04-.4-.07-.77-.04-1.17.02-.18-.15-.33-.14-.48-.12.02-.22.01-.28,0,0,0,.15-.74.17-.73,0,.18.09-.04.09.16,0,.13.04.07.03.2-.01.13,0,.25,0,.37.02,0,.05-.01.07-.01.95-.16,3.07-1.08,5.14-1.04.86.03,1.71-.02,2.5-.07,4.05-.28,7.18-1.38,9.15-.19,3.31,2.03,5.35,8.3,4.27,15.51-1.14,7.61-4.68,15.6-8.68,17.29h-.02l-.06.1c-.76.49-1.57.96-2.37,1.15-.14.04-.26.06-.41.09-2.36.58-4.88,1.11-7.38,1.62-4.12.86-8.18,1.71-11.35,2.68-.03.01-.05.01-.09.02-.05.01-.17.02-.25.04-.02.02-.07,0-.09,0Z"/>
            </g>
            <path class="uuid-3e96d27f-329d-43c0-9412-39761597b2f4" d="m1388.55,1038.73c.05-2.29,2.05-4.05,4.33-3.83,3.58.35,7.38,1.74,8.94,2.35.1.04-3.35-1.13-3.45-1.2-1.33-.92-1.18-2-6.41-3.83-1.74-.61-2.86-2.31-2.66-4.14.26-2.37,2.56-3.95,4.85-3.34,4.57,1.22,6.9,1.47,6.9,1.47,0,0-2.9-1.03-8.21-3.51-.83-1.56-1.41-2.65-2.23-4.21.13-.86.26-1.72.4-2.59.37-2.36,2.75-3.84,5.04-3.17l8.32,2.45s-.59-.8-9.05-4.6c-1.83-.82-2.76-2.89-2.16-4.81.09-.29.19-.59.28-.88.27-.8.55-1.52.84-2.16.85-1.89,3.05-2.75,5-2.03,4.62,1.72,8.74,3.45,12.2,4.94,7.08,3.05,12.36,9.15,14.33,16.59,3.05,11.51,8.12,29.4,13.02,41.08,7.12,16.96,101.62,114.07,116.72,134.38,1.16,1.56,8.93,5.35-7.42,26.31-9.91,12.71-29.85,47.99-40.29,49.05-11.5,1.16-74.61-138.38-84.89-180.01-6.1-24.71-20.19-42.77-23.1-46.31-.34-.42-.76-.77-1.25-1-1.84-.88-4.39-1.7-7.21-2.5-1.72-.49-2.89-2.09-2.86-3.87,0-.22,0-.44.01-.66Z"/>
          </g>
          <g>
            <g>
              <path class="uuid-16d29dea-8424-42ce-b90a-1658d6e536c9" d="m1581.62,719.83l4.41-.97c.27-.79.43-1.22.43-1.22l-4.85,2.19Z"/>
              <path class="uuid-3e96d27f-329d-43c0-9412-39761597b2f4" d="m1736.1,926.87c-13.45,21.69-99.89,5.96-99.89,5.96l2.86-14.23,10.19-50.59s-16.05,11.87-34.84,16.31c-18.79,4.43-15.88-11.32-16.68-21.09-.03-.33-.05-.65-.1-.98-.75-6.96-2.93-10.17-3.76-12.55-.28-.68-.11-13.51-.06-14.14.2-2.91-9.86-.43-16.84-7.03-5.45-5.14,14.3-23.57,3.58-44.71-5.96-11.72-7.81-29.49-4.43-44.16,2.13-9.22,8.94-17.98,9.91-20.81l44.91-9.82,28.8,22.09s52.15,57.18,42.13,103.62c-1.55,7.16-1.48,13.83-.3,19.99,3.31,17.48,15.45,31.28,24.82,43.06h.03c8.79,11,15.15,20.24,9.67,29.08Z"/>
            </g>
            <path class="uuid-d38dae41-1edd-4f5b-b88b-bf889d5177f0" d="m1698.74,690.47s-8.84-9.69-44.62-6.19c-35.78,3.5-64.48,10.35-73.92,30.1-9.44,19.75-4.06,25.29-4.06,25.29,0,0,7.91-4.3,18.18-11.44,26.63-18.52,56.49,17.77,52.18,26.05-4.31,8.28-11.05,51.9-.43,33.38,17.89-31.21,39.11-1.58,35.54,9.88-3.56,11.46-9.6,21.58-19.93,23.32-10.34,1.74,27.38,43.4,44.62,32.13,17.25-11.27,42.99-66.05,40.92-93.59-2.07-27.54-7.63-46.72-7.63-46.72l-40.85-22.2Z"/>
            <path class="uuid-d38dae41-1edd-4f5b-b88b-bf889d5177f0" d="m1736.95,639.67c-23.35-10.79-51.36,3.18-66.87,30.54-15.5,27.35,30.51,44.21,30.51,44.21,0,0,53.21,12.66,65.65-20.26,12.44-32.92-13.04-46.98-29.3-54.49Z"/>
          </g>
          <path class="uuid-3e96d27f-329d-43c0-9412-39761597b2f4" d="m1617.84,1755.82l22.78,57.2c1.36,4.16-11.8,23.3-22.63,28.99-14.67,7.7-29.83,8.29-28.4,24.06.86,31.14,76.48-16.06,76.48-16.06,15.77-7.87,6.09-23.28,2.05-39.67-12.45-50.46-19.26-64.81-19.26-64.81l-31.02,10.28Z"/>
          <path class="uuid-3e96d27f-329d-43c0-9412-39761597b2f4" d="m1543.15,1773.86l28.39,56.47c1.36,4.16-11.8,23.3-22.63,28.99-14.67,7.7-29.83,8.29-28.4,24.06.86,31.14,76.48-16.06,76.48-16.06,15.77-7.87,10.01-22.5,5.97-38.9-12.45-50.46-18.98-65.58-18.98-65.58l-40.83,11.02Z"/>
          <g>
            <path class="uuid-84cb7e16-42ca-4e7d-a5d3-3e42e807456b" d="m1697.31,1848.33c-6.69,2.78-117.24,36.52-119.44,32.82-1.27-2.18-4.19-3.8-6.54-6.25-.16-.15-.31-.32-.47-.5-.05-.06-.13-.15-.18-.22-1.32-1.54-2.4-3.43-2.75-5.99-.03-.09-.04-.2-.05-.29-.68-5.82,14.78-16.8,23.9-22.99,2.54-1.71,4.58-3.05,5.66-3.83,3.43-2.45,6.12-6.57,9.6-10.29,1.13-1.17,2.33-2.32,3.68-3.34,4.25-3.26,15.96-17.97,21.08-24.53.52-.67.98-1.26,1.35-1.74.74-.95,1.79-1.63,2.99-1.94l3.75-.97,24.58-6.39c2.5-.65,5.14.41,6.35,2.58,1.17,2.1,2.78,4.94,4.65,8.19.53.95,1.1,1.92,1.68,2.91.5.84.99,1.72,1.52,2.6.94,1.63,1.93,3.28,2.94,4.95,3.95,6.58,8.18,13.29,11.64,18.03.78,1.09,1.55,2.07,2.24,2.92.64.78.95,1.89,1.81,2.26,2.7,1.17,9.81,7.94,0,12.02Z"/>
            <g>
              <path class="uuid-d38dae41-1edd-4f5b-b88b-bf889d5177f0" d="m1697.31,1836.31l-125.98,38.59c-.16-.15-.31-.32-.47-.5-.05-.06-.13-.15-.18-.22-1.32-1.54-2.4-3.43-2.75-5.99l125.34-37.06c.78,1.09,1.55,2.07,2.24,2.92.64.78,1.25,1.54,1.81,2.26Z"/>
              <path class="uuid-d38dae41-1edd-4f5b-b88b-bf889d5177f0" d="m1678.68,1808.16l-6.93,2.93-79.97,33.83c2.54-1.71,4.58-3.05,5.66-3.83,3.43-2.45,6.12-6.57,9.6-10.29l53.48-21.99h.02s10.68-4.4,10.68-4.4l4.26-1.75c.53.95,1.1,1.92,1.68,2.91.5.84.99,1.72,1.52,2.6Z"/>
              <path class="uuid-d38dae41-1edd-4f5b-b88b-bf889d5177f0" d="m1681.62,1813.11l-9.88-2.02-11.2-2.28h-.02s-28.72-5.87-28.72-5.87c1.53-1.97,2.48-3.19,2.48-3.19l5.61-1.45,31.32,6.12,5.94,1.15c.5.84.99,1.72,1.52,2.6.94,1.63,1.93,3.28,2.94,4.95Z"/>
            </g>
          </g>
          <g>
            <path class="uuid-84cb7e16-42ca-4e7d-a5d3-3e42e807456b" d="m1635.09,1875.3c-7.35,3.06-128.92,40.16-131.34,36.09-1.39-2.4-4.61-4.18-7.2-6.87-.17-.16-.34-.35-.52-.55-.06-.07-.14-.17-.2-.24-1.45-1.69-2.64-3.77-3.02-6.59-.03-.1-.04-.22-.05-.32-.75-6.4,16.25-18.48,26.28-25.29,2.79-1.88,5.03-3.36,6.22-4.21,3.77-2.7,6.73-7.23,10.56-11.31,1.24-1.28,2.56-2.55,4.05-3.67,4.67-3.58,17.54-19.76,23.18-26.97.57-.74,1.07-1.38,1.49-1.91.81-1.04,1.96-1.79,3.29-2.13l4.13-1.07,27.03-7.03c2.75-.72,5.65.45,6.98,2.83,1.29,2.3,3.06,5.44,5.11,9,.58,1.04,1.21,2.11,1.85,3.2.54.92,1.09,1.89,1.67,2.86,1.03,1.79,2.12,3.61,3.24,5.44,4.35,7.23,9,14.62,12.8,19.82.86,1.2,1.71,2.28,2.46,3.21.7.86,1.04,2.08,1.99,2.49,2.96,1.28,10.78,8.73,0,13.21Z"/>
            <g>
              <path class="uuid-d38dae41-1edd-4f5b-b88b-bf889d5177f0" d="m1635.09,1862.09l-138.53,42.43c-.17-.16-.34-.35-.52-.55-.06-.07-.14-.17-.2-.24-1.45-1.69-2.64-3.77-3.02-6.59l137.83-40.76c.86,1.2,1.71,2.28,2.46,3.21.7.86,1.37,1.7,1.99,2.49Z"/>
              <path class="uuid-d38dae41-1edd-4f5b-b88b-bf889d5177f0" d="m1614.6,1831.13l-7.62,3.22-87.93,37.2c2.79-1.88,5.03-3.36,6.22-4.21,3.77-2.7,6.73-7.23,10.56-11.31l58.81-24.18h.03s11.74-4.84,11.74-4.84l4.68-1.93c.58,1.04,1.21,2.11,1.85,3.2.54.92,1.09,1.89,1.67,2.86Z"/>
              <path class="uuid-d38dae41-1edd-4f5b-b88b-bf889d5177f0" d="m1617.84,1836.57l-10.86-2.22-12.32-2.51h-.03s-31.58-6.46-31.58-6.46c1.68-2.17,2.73-3.51,2.73-3.51l6.17-1.6,34.44,6.73,6.53,1.27c.54.92,1.09,1.89,1.67,2.86,1.03,1.79,2.12,3.61,3.24,5.44Z"/>
            </g>
          </g>
          <path class="uuid-d4f18ec5-f9bb-4de3-b043-03d6e5184b5c" d="m1624.5,1437.89l-140.55,52.15,82.95,158.62,49.06,118.26c1.07,2.59,4.02,4.02,6.88,3.35l28.53-6.73c3.05-.72,5.05-3.47,4.65-6.41-2.7-19.7-13.1-91.11-26.92-130.19-16.13-45.63-4.61-189.05-4.61-189.05Z"/>
          <path class="uuid-16d29dea-8424-42ce-b90a-1658d6e536c9" d="m1664.49,1277.79l-.82-.7s.34.78.82.7Z"/>
          <path class="uuid-d4f18ec5-f9bb-4de3-b043-03d6e5184b5c" d="m1782.32,1194.52l-112.9,53.24-2.3,27.16s-201.6,158.62-210.82,176.01c-9.22,17.38-2.3,63.01-2.3,63.01l51.32,177.87,34.68,93.13c1.8,3.87,6.36,5.88,10.67,4.72l33.11-8.98c3.89-1.05,6.45-4.52,6.13-8.33-2.86-34.44-16.1-193.93-16.1-199.75,0-6.52-11.52-80.4-11.52-80.4l-39.17,4.35,177.41-54.32s129.03-30.42,154.37-47.8c25.34-17.38,36.86-39.11,25.34-71.71-11.52-32.59-97.92-128.2-97.92-128.2Z"/>
          <path class="uuid-d38dae41-1edd-4f5b-b88b-bf889d5177f0" d="m1755.83,1240.15l-18.43,10.86s18.43,30.42,16.13,52.15c-2.3,21.73-260.36,165.14-260.36,165.14l67.58,318.39,15.37-3.94-24.46-141.91-40.06-157.33,156.68-93.44s87.55-49.98,94.47-56.5c6.91-6.52,20.74-10.86,16.13-34.77-4.61-23.9-23.04-58.67-23.04-58.67Z"/>
          <path class="uuid-84cb7e16-42ca-4e7d-a5d3-3e42e807456b" d="m1668.27,1224.95c0,20.63-.5,33.33-1.16,41.09,17.92-9.31,37.78-15.04,56.5-23.35,24.26-10.77,44.65-28.27,71.04-33.37-40.19-47.22-22.69-49.69-22.69-125.62,0-82.58,13.81-130.39-16.12-167.34-29.96-36.92-76.04-10.85-76.04-10.85,0,0-50.7,17.38-80.66,23.89-10.07,2.2-17.53,10.27-22.57,19.14-10.25,11.22-14.13,34.26-23.5,91.67-13.81,84.76-62.2,145.6-62.2,171.67s2.31,49.99,9.22,58.68c6.91,8.69,25.34-6.54,43.77-26.1,12.32-13.05,45.18-54.23,71.12-89.84,20.95,14.65,40.66,38.15,53.22,54.88.05,4.96.08,10.12.08,15.43Z"/>
          <g class="uuid-2f512d02-1216-4833-a8d7-eea1fa921053">
            <g>
              <path class="uuid-becb5deb-a3cd-4c71-8d2f-a1ee878e3d4f" d="m1698.7,888.45c-6.5.11-12.84,1.3-19.23,2.28,3.08-4.81,8.16-9.25,11.46-12.08,5.62-4.82-2.52-12.92-8.11-8.14-4.96,4.25-11.26,10.45-14.79,17.28-.48.07-.93.2-1.36.39-2.1-5.86-5.86-10.92-8.94-16.5-3.57-6.48-13.47-.68-9.9,5.81,2.42,4.39,6.6,9.08,8.22,14.1-5.21.27-10.42.66-15.64.71-7.37.07-7.39,11.57,0,11.51,4.02-.04,8.04-.28,12.05-.51-2.64,2.51-5.16,5.14-7.51,7.95-1.99,2.38-2.33,5.8,0,8.14,2.04,2.05,6.11,2.39,8.11,0,3.31-3.97,6.97-7.59,10.82-10.99.28,6.47,1.27,12.9,1.4,19.38.15,7.39,11.62,7.42,11.46,0-.11-5.37-.81-10.7-1.21-16.06,5.77,2.01,11.05,4.86,16.02,8.47,2.53,1.84,6.36.42,7.84-2.06,1.72-2.88.44-6.06-2.06-7.87-4.77-3.47-9.93-6.24-15.38-8.39,5.55-.88,11.09-1.8,16.72-1.89,7.37-.12,7.39-11.63,0-11.51Z"/>
              <path class="uuid-becb5deb-a3cd-4c71-8d2f-a1ee878e3d4f" d="m1790.91,888.45c-6.5.11-12.84,1.3-19.23,2.28,3.08-4.81,8.16-9.25,11.46-12.08,5.62-4.82-2.52-12.92-8.11-8.14-4.96,4.25-11.26,10.45-14.79,17.28-.48.07-.93.2-1.36.39-2.1-5.86-5.86-10.92-8.94-16.5-3.57-6.48-13.47-.68-9.9,5.81,2.42,4.39,6.6,9.08,8.22,14.1-5.21.27-10.42.66-15.64.71-7.37.07-7.39,11.57,0,11.51,4.02-.04,8.04-.28,12.05-.51-2.64,2.51-5.16,5.14-7.51,7.95-1.99,2.38-2.33,5.8,0,8.14,2.04,2.05,6.11,2.39,8.11,0,3.31-3.97,6.97-7.59,10.82-10.99.28,6.47,1.27,12.9,1.4,19.38.15,7.39,11.62,7.42,11.46,0-.11-5.37-.81-10.7-1.21-16.06,5.77,2.01,11.05,4.86,16.02,8.47,2.53,1.84,6.36.42,7.84-2.06,1.72-2.88.44-6.06-2.06-7.87-4.77-3.47-9.93-6.24-15.38-8.39,5.55-.88,11.09-1.8,16.72-1.89,7.37-.12,7.39-11.63,0-11.51Z"/>
              <path class="uuid-becb5deb-a3cd-4c71-8d2f-a1ee878e3d4f" d="m1603.84,888.45c-6.5.11-12.84,1.3-19.23,2.28,3.08-4.81,8.16-9.25,11.46-12.08,5.62-4.82-2.52-12.92-8.11-8.14-4.96,4.25-11.26,10.45-14.79,17.28-.48.07-.93.2-1.36.39-2.1-5.86-5.86-10.92-8.94-16.5-3.57-6.48-13.47-.68-9.9,5.81,2.42,4.39,6.6,9.08,8.22,14.1-5.21.27-10.42.66-15.64.71-7.37.07-7.39,11.57,0,11.51,4.02-.04,8.04-.28,12.05-.51-2.64,2.51-5.16,5.14-7.51,7.95-1.98,2.38-2.33,5.8,0,8.14,2.04,2.05,6.11,2.39,8.11,0,3.31-3.97,6.97-7.59,10.82-10.99.28,6.47,1.27,12.9,1.4,19.38.15,7.39,11.62,7.42,11.46,0-.11-5.37-.81-10.7-1.21-16.06,5.77,2.01,11.05,4.86,16.02,8.47,2.53,1.84,6.36.42,7.84-2.06,1.72-2.88.44-6.06-2.06-7.87-4.77-3.47-9.93-6.24-15.38-8.39,5.55-.88,11.09-1.8,16.72-1.89,7.37-.12,7.39-11.63,0-11.51Z"/>
              <path class="uuid-becb5deb-a3cd-4c71-8d2f-a1ee878e3d4f" d="m1507.44,888.45c-6.5.11-12.84,1.3-19.23,2.28,3.08-4.81,8.16-9.25,11.46-12.09,5.62-4.82-2.52-12.92-8.11-8.14-4.96,4.25-11.26,10.45-14.79,17.28-.48.07-.93.2-1.36.39-2.11-5.86-5.86-10.92-8.94-16.5-1.2-2.18-3.11-2.95-4.99-2.79v16.19c1.36,2.11,2.59,4.27,3.32,6.51-1.11.06-2.21.12-3.32.19v27.91c.11-.1.23-.18.33-.3,3.31-3.97,6.97-7.59,10.82-10.99.28,6.48,1.27,12.9,1.4,19.38.15,7.39,11.62,7.42,11.46,0-.11-5.37-.81-10.7-1.21-16.06,5.77,2.01,11.05,4.86,16.02,8.47,2.53,1.84,6.36.42,7.84-2.06,1.72-2.88.44-6.06-2.06-7.87-4.77-3.47-9.93-6.24-15.38-8.39,5.55-.88,11.09-1.8,16.72-1.89,7.37-.12,7.39-11.63,0-11.51Z"/>
              <path class="uuid-becb5deb-a3cd-4c71-8d2f-a1ee878e3d4f" d="m1748.22,968.99c-6.5.11-12.84,1.3-19.23,2.28,3.08-4.81,8.16-9.25,11.46-12.08,5.62-4.82-2.52-12.92-8.11-8.14-4.96,4.25-11.26,10.45-14.79,17.28-.48.07-.93.2-1.36.39-2.1-5.86-5.86-10.92-8.94-16.5-3.57-6.48-13.47-.68-9.9,5.81,2.42,4.39,6.6,9.08,8.22,14.1-5.21.27-10.42.66-15.64.71-7.37.07-7.39,11.57,0,11.51,4.02-.04,8.04-.28,12.05-.51-2.64,2.51-5.16,5.14-7.51,7.95-1.99,2.38-2.33,5.8,0,8.14,2.04,2.05,6.11,2.39,8.11,0,3.31-3.97,6.97-7.59,10.82-10.99.28,6.47,1.27,12.9,1.4,19.38.15,7.39,11.62,7.42,11.46,0-.11-5.37-.81-10.7-1.21-16.06,5.77,2.01,11.05,4.86,16.02,8.47,2.53,1.84,6.36.42,7.84-2.06,1.72-2.89.44-6.06-2.06-7.87-4.77-3.47-9.93-6.24-15.38-8.39,5.55-.88,11.09-1.8,16.72-1.89,7.37-.12,7.39-11.63,0-11.51Z"/>
              <path class="uuid-becb5deb-a3cd-4c71-8d2f-a1ee878e3d4f" d="m1840.44,968.99c-6.5.11-12.84,1.3-19.23,2.28,3.08-4.81,8.16-9.25,11.46-12.08,5.62-4.82-2.52-12.92-8.11-8.14-4.96,4.25-11.26,10.45-14.79,17.28-.48.07-.93.2-1.36.39-2.1-5.86-5.86-10.92-8.94-16.5-3.57-6.48-13.47-.68-9.9,5.81,2.42,4.39,6.6,9.08,8.22,14.1-5.21.27-10.42.66-15.64.71-7.37.07-7.39,11.57,0,11.51,4.02-.04,8.04-.28,12.05-.51-2.64,2.51-5.16,5.14-7.51,7.95-1.99,2.38-2.33,5.8,0,8.14,2.04,2.05,6.11,2.39,8.11,0,3.31-3.97,6.97-7.59,10.82-10.99.28,6.47,1.27,12.9,1.4,19.38.15,7.39,11.62,7.42,11.46,0-.11-5.37-.81-10.7-1.21-16.06,5.77,2.01,11.05,4.86,16.02,8.47,2.53,1.84,6.36.42,7.84-2.06,1.72-2.89.44-6.06-2.06-7.87-4.77-3.47-9.93-6.24-15.38-8.39,5.55-.88,11.09-1.8,16.72-1.89,7.37-.12,7.39-11.63,0-11.51Z"/>
              <path class="uuid-becb5deb-a3cd-4c71-8d2f-a1ee878e3d4f" d="m1653.36,968.99c-6.5.11-12.84,1.3-19.23,2.28,3.08-4.81,8.16-9.25,11.46-12.08,5.62-4.82-2.52-12.92-8.11-8.14-4.96,4.25-11.26,10.45-14.79,17.28-.48.07-.93.2-1.36.39-2.11-5.86-5.86-10.92-8.94-16.5-3.57-6.48-13.47-.68-9.9,5.81,2.42,4.39,6.6,9.08,8.22,14.1-5.21.27-10.42.66-15.64.71-7.37.07-7.39,11.57,0,11.51,4.02-.04,8.04-.28,12.05-.51-2.64,2.51-5.16,5.14-7.51,7.95-1.99,2.38-2.33,5.8,0,8.14,2.04,2.05,6.11,2.39,8.11,0,3.31-3.97,6.97-7.59,10.82-10.99.28,6.47,1.27,12.9,1.4,19.38.15,7.39,11.62,7.42,11.46,0-.11-5.37-.81-10.7-1.21-16.06,5.77,2.01,11.05,4.86,16.02,8.47,2.53,1.84,6.36.42,7.84-2.06,1.72-2.89.44-6.06-2.06-7.87-4.77-3.47-9.93-6.24-15.38-8.39,5.55-.88,11.09-1.8,16.72-1.89,7.37-.12,7.39-11.63,0-11.51Z"/>
              <path class="uuid-becb5deb-a3cd-4c71-8d2f-a1ee878e3d4f" d="m1556.96,968.99c-6.5.11-12.84,1.3-19.23,2.28,3.08-4.81,8.16-9.25,11.46-12.08,5.62-4.82-2.52-12.92-8.11-8.14-4.96,4.25-11.26,10.45-14.79,17.28-.48.07-.93.2-1.36.39-2.1-5.86-5.86-10.92-8.94-16.5-3.57-6.48-13.47-.68-9.9,5.81,2.42,4.39,6.6,9.08,8.22,14.1-5.21.27-10.42.66-15.64.71-7.37.07-7.39,11.57,0,11.51,4.02-.04,8.04-.28,12.05-.51-2.64,2.51-5.16,5.14-7.51,7.95-1.99,2.38-2.33,5.8,0,8.14,2.04,2.05,6.11,2.39,8.11,0,3.31-3.97,6.97-7.59,10.82-10.99.28,6.47,1.27,12.9,1.4,19.38.15,7.39,11.62,7.42,11.46,0-.11-5.37-.81-10.7-1.21-16.06,5.77,2.01,11.05,4.86,16.02,8.47,2.53,1.84,6.36.42,7.84-2.06,1.72-2.89.44-6.06-2.06-7.87-4.77-3.47-9.93-6.24-15.38-8.39,5.55-.88,11.09-1.8,16.72-1.89,7.37-.12,7.39-11.63,0-11.51Z"/>
              <path class="uuid-becb5deb-a3cd-4c71-8d2f-a1ee878e3d4f" d="m1701.28,1049.53c-6.5.11-12.84,1.3-19.23,2.28,3.08-4.81,8.16-9.25,11.46-12.09,5.62-4.82-2.52-12.92-8.11-8.14-4.96,4.25-11.26,10.45-14.79,17.28-.48.07-.93.2-1.36.39-2.1-5.86-5.86-10.92-8.94-16.5-3.57-6.48-13.47-.68-9.9,5.81,2.42,4.39,6.6,9.08,8.22,14.1-5.21.27-10.42.66-15.64.71-7.37.07-7.39,11.57,0,11.51,4.02-.04,8.04-.28,12.05-.51-2.64,2.51-5.16,5.14-7.51,7.95-1.99,2.38-2.33,5.8,0,8.14,2.04,2.05,6.11,2.39,8.11,0,3.31-3.97,6.97-7.59,10.82-10.99.28,6.47,1.27,12.9,1.4,19.38.15,7.39,11.62,7.42,11.46,0-.11-5.37-.81-10.7-1.21-16.06,5.77,2.01,11.05,4.86,16.02,8.47,2.53,1.84,6.36.42,7.84-2.06,1.72-2.88.44-6.06-2.06-7.87-4.77-3.47-9.93-6.24-15.38-8.39,5.55-.88,11.09-1.8,16.72-1.89,7.37-.12,7.39-11.63,0-11.51Z"/>
              <path class="uuid-becb5deb-a3cd-4c71-8d2f-a1ee878e3d4f" d="m1793.49,1049.53c-6.5.11-12.84,1.3-19.23,2.28,3.08-4.81,8.16-9.25,11.46-12.09,5.62-4.82-2.52-12.92-8.11-8.14-4.96,4.25-11.26,10.45-14.79,17.28-.48.07-.93.2-1.36.39-2.1-5.86-5.86-10.92-8.94-16.5-3.57-6.48-13.47-.68-9.9,5.81,2.42,4.39,6.6,9.08,8.22,14.1-5.21.27-10.42.66-15.64.71-7.37.07-7.39,11.57,0,11.51,4.02-.04,8.04-.28,12.05-.51-2.64,2.51-5.16,5.14-7.51,7.95-1.98,2.38-2.33,5.8,0,8.14,2.04,2.05,6.11,2.39,8.11,0,3.31-3.97,6.97-7.59,10.82-10.99.28,6.47,1.27,12.9,1.4,19.38.15,7.39,11.62,7.42,11.46,0-.11-5.37-.81-10.7-1.21-16.06,5.77,2.01,11.05,4.86,16.02,8.47,2.53,1.84,6.36.42,7.84-2.06,1.72-2.88.44-6.06-2.06-7.87-4.77-3.47-9.93-6.24-15.38-8.39,5.55-.88,11.09-1.8,16.72-1.89,7.37-.12,7.39-11.63,0-11.51Z"/>
              <path class="uuid-becb5deb-a3cd-4c71-8d2f-a1ee878e3d4f" d="m1606.42,1049.53c-6.5.11-12.84,1.3-19.23,2.28,3.08-4.81,8.16-9.25,11.46-12.09,5.62-4.82-2.52-12.92-8.11-8.14-4.96,4.25-11.26,10.45-14.79,17.28-.48.07-.93.2-1.36.39-2.1-5.86-5.86-10.92-8.94-16.5-3.57-6.48-13.47-.68-9.9,5.81,2.42,4.39,6.6,9.08,8.22,14.1-5.21.27-10.42.66-15.64.71-7.37.07-7.39,11.57,0,11.51,4.02-.04,8.04-.28,12.05-.51-2.64,2.51-5.16,5.14-7.51,7.95-1.99,2.38-2.33,5.8,0,8.14,2.04,2.05,6.11,2.39,8.11,0,3.31-3.97,6.97-7.59,10.82-10.99.28,6.47,1.27,12.9,1.4,19.38.15,7.39,11.62,7.42,11.46,0-.11-5.37-.81-10.7-1.21-16.06,5.77,2.01,11.05,4.86,16.02,8.47,2.53,1.84,6.36.42,7.84-2.06,1.72-2.88.44-6.06-2.06-7.87-4.77-3.47-9.93-6.24-15.38-8.39,5.55-.88,11.09-1.8,16.72-1.89,7.37-.12,7.39-11.63,0-11.51Z"/>
              <path class="uuid-becb5deb-a3cd-4c71-8d2f-a1ee878e3d4f" d="m1510.02,1049.53c-6.5.11-12.84,1.3-19.23,2.28,3.08-4.81,8.16-9.25,11.46-12.09,5.62-4.82-2.52-12.92-8.11-8.14-4.96,4.25-11.26,10.45-14.79,17.28-.48.07-.93.2-1.36.39-2.1-5.86-5.86-10.92-8.94-16.5-1.77-3.22-5.1-3.4-7.57-1.99v11.52c2.21,3.3,4.72,6.75,5.9,10.38-1.97.1-3.93.22-5.9.33v11.5c.77-.04,1.54-.08,2.31-.13-.79.75-1.54,1.53-2.31,2.31v15.37c1.12-.18,2.16-.69,2.91-1.59,3.31-3.97,6.97-7.59,10.82-10.99.28,6.47,1.27,12.9,1.4,19.38.15,7.39,11.62,7.42,11.46,0-.11-5.37-.81-10.7-1.21-16.06,5.77,2.01,11.05,4.86,16.02,8.47,2.53,1.84,6.36.42,7.84-2.06,1.72-2.89.44-6.06-2.06-7.87-4.77-3.47-9.93-6.24-15.38-8.39,5.55-.88,11.09-1.8,16.72-1.89,7.37-.12,7.39-11.63,0-11.51Z"/>
              <path class="uuid-becb5deb-a3cd-4c71-8d2f-a1ee878e3d4f" d="m1746.77,1131.99c-6.5.11-12.84,1.3-19.23,2.28,3.08-4.81,8.16-9.25,11.46-12.08,5.62-4.82-2.52-12.92-8.11-8.14-4.96,4.25-11.26,10.45-14.79,17.28-.48.07-.93.2-1.36.39-2.1-5.86-5.86-10.92-8.94-16.5-3.57-6.48-13.47-.68-9.9,5.81,2.42,4.39,6.6,9.08,8.22,14.1-5.21.27-10.42.66-15.64.71-7.37.07-7.39,11.57,0,11.51,4.02-.04,8.04-.28,12.05-.51-2.64,2.51-5.16,5.14-7.51,7.95-1.99,2.38-2.33,5.8,0,8.14,2.04,2.05,6.11,2.39,8.11,0,3.31-3.97,6.97-7.59,10.83-10.99.28,6.47,1.27,12.9,1.4,19.38.15,7.39,11.62,7.42,11.46,0-.11-5.37-.81-10.7-1.21-16.06,5.77,2.01,11.05,4.86,16.02,8.47,2.53,1.84,6.36.42,7.84-2.06,1.72-2.88.44-6.06-2.06-7.87-4.77-3.47-9.93-6.24-15.38-8.39,5.55-.88,11.09-1.8,16.72-1.89,7.37-.12,7.39-11.63,0-11.51Z"/>
              <path class="uuid-becb5deb-a3cd-4c71-8d2f-a1ee878e3d4f" d="m1838.98,1131.99c-6.5.11-12.84,1.3-19.23,2.28,3.08-4.81,8.16-9.25,11.46-12.08,5.62-4.82-2.52-12.92-8.11-8.14-4.96,4.25-11.26,10.45-14.79,17.28-.48.07-.93.2-1.36.39-2.1-5.86-5.86-10.92-8.94-16.5-3.57-6.48-13.47-.68-9.9,5.81,2.42,4.39,6.6,9.08,8.22,14.1-5.21.27-10.42.66-15.64.71-7.37.07-7.39,11.57,0,11.51,4.02-.04,8.04-.28,12.05-.51-2.64,2.51-5.16,5.14-7.51,7.95-1.99,2.38-2.33,5.8,0,8.14,2.04,2.05,6.11,2.39,8.11,0,3.31-3.97,6.97-7.59,10.83-10.99.28,6.47,1.27,12.9,1.4,19.38.15,7.39,11.62,7.42,11.46,0-.11-5.37-.81-10.7-1.21-16.06,5.77,2.01,11.05,4.86,16.02,8.47,2.53,1.84,6.36.42,7.84-2.06,1.72-2.88.44-6.06-2.06-7.87-4.77-3.47-9.93-6.24-15.38-8.39,5.55-.88,11.09-1.8,16.72-1.89,7.37-.12,7.39-11.63,0-11.51Z"/>
              <path class="uuid-becb5deb-a3cd-4c71-8d2f-a1ee878e3d4f" d="m1651.91,1131.99c-6.5.11-12.84,1.3-19.23,2.28,3.08-4.81,8.16-9.25,11.46-12.08,5.62-4.82-2.52-12.92-8.11-8.14-4.96,4.25-11.26,10.45-14.79,17.28-.48.07-.93.2-1.36.39-2.1-5.86-5.86-10.92-8.94-16.5-3.57-6.48-13.47-.68-9.9,5.81,2.42,4.39,6.6,9.08,8.22,14.1-5.21.27-10.42.66-15.64.71-7.37.07-7.39,11.57,0,11.51,4.02-.04,8.04-.28,12.05-.51-2.64,2.51-5.16,5.14-7.51,7.95-1.99,2.38-2.33,5.8,0,8.14,2.04,2.05,6.11,2.39,8.11,0,3.31-3.97,6.97-7.59,10.82-10.99.28,6.47,1.27,12.9,1.4,19.38.15,7.39,11.62,7.42,11.46,0-.11-5.37-.81-10.7-1.21-16.06,5.77,2.01,11.05,4.86,16.02,8.47,2.53,1.84,6.36.42,7.84-2.06,1.72-2.88.44-6.06-2.06-7.87-4.77-3.47-9.93-6.24-15.38-8.39,5.55-.88,11.09-1.8,16.72-1.89,7.37-.12,7.39-11.63,0-11.51Z"/>
              <path class="uuid-becb5deb-a3cd-4c71-8d2f-a1ee878e3d4f" d="m1555.51,1131.99c-6.5.11-12.84,1.3-19.23,2.28,3.08-4.81,8.16-9.25,11.46-12.08,5.62-4.82-2.52-12.92-8.11-8.14-4.96,4.25-11.26,10.45-14.79,17.28-.48.07-.93.2-1.36.39-2.1-5.86-5.86-10.92-8.94-16.5-3.57-6.48-13.47-.68-9.9,5.81,2.42,4.39,6.6,9.08,8.22,14.1-5.21.27-10.42.66-15.64.71-7.37.07-7.39,11.57,0,11.51,4.02-.04,8.04-.28,12.05-.51-2.64,2.51-5.16,5.14-7.51,7.95-1.99,2.38-2.33,5.8,0,8.14,2.04,2.05,6.11,2.39,8.11,0,3.31-3.97,6.97-7.59,10.82-10.99.28,6.47,1.27,12.9,1.4,19.38.15,7.39,11.62,7.42,11.46,0-.11-5.37-.81-10.7-1.21-16.06,5.77,2.01,11.05,4.86,16.02,8.47,2.53,1.84,6.36.42,7.84-2.06,1.72-2.88.44-6.06-2.06-7.87-4.77-3.47-9.93-6.24-15.38-8.39,5.55-.88,11.09-1.8,16.72-1.89,7.37-.12,7.39-11.63,0-11.51Z"/>
              <path class="uuid-becb5deb-a3cd-4c71-8d2f-a1ee878e3d4f" d="m1701.28,1208.7c-6.5.11-12.84,1.3-19.23,2.28,3.08-4.81,8.16-9.25,11.46-12.08,5.62-4.82-2.52-12.92-8.11-8.14-4.96,4.25-11.26,10.45-14.79,17.28-.48.07-.93.2-1.36.39-2.1-5.86-5.86-10.92-8.94-16.5-3.57-6.48-13.47-.68-9.9,5.81,2.42,4.39,6.6,9.08,8.22,14.1-5.21.27-10.42.66-15.64.71-7.37.07-7.39,11.57,0,11.51,4.02-.04,8.04-.28,12.05-.51-2.64,2.51-5.16,5.14-7.51,7.95-1.99,2.38-2.33,5.8,0,8.14,2.04,2.05,6.11,2.39,8.11,0,3.31-3.97,6.97-7.59,10.82-10.99.28,6.47,1.27,12.9,1.4,19.38.15,7.39,11.62,7.42,11.46,0-.11-5.37-.81-10.7-1.21-16.06,5.77,2.01,11.05,4.86,16.02,8.47,2.53,1.84,6.36.42,7.84-2.06,1.72-2.88.44-6.06-2.06-7.87-4.77-3.47-9.93-6.24-15.38-8.39,5.55-.88,11.09-1.8,16.72-1.89,7.37-.12,7.39-11.63,0-11.51Z"/>
              <path class="uuid-becb5deb-a3cd-4c71-8d2f-a1ee878e3d4f" d="m1793.49,1208.7c-6.5.11-12.84,1.3-19.23,2.28,3.08-4.81,8.16-9.25,11.46-12.08,5.62-4.82-2.52-12.92-8.11-8.14-4.96,4.25-11.26,10.45-14.79,17.28-.48.07-.93.2-1.36.39-2.1-5.86-5.86-10.92-8.94-16.5-3.57-6.48-13.47-.68-9.9,5.81,2.42,4.39,6.6,9.08,8.22,14.1-5.21.27-10.42.66-15.64.71-7.37.07-7.39,11.57,0,11.51,4.02-.04,8.04-.28,12.05-.51-2.64,2.51-5.16,5.14-7.51,7.95-1.98,2.38-2.33,5.8,0,8.14,2.04,2.05,6.11,2.39,8.11,0,3.31-3.97,6.97-7.59,10.82-10.99.28,6.47,1.27,12.9,1.4,19.38.15,7.39,11.62,7.42,11.46,0-.11-5.37-.81-10.7-1.21-16.06,5.77,2.01,11.05,4.86,16.02,8.47,2.53,1.84,6.36.42,7.84-2.06,1.72-2.88.44-6.06-2.06-7.87-4.77-3.47-9.93-6.24-15.38-8.39,5.55-.88,11.09-1.8,16.72-1.89,7.37-.12,7.39-11.63,0-11.51Z"/>
              <path class="uuid-becb5deb-a3cd-4c71-8d2f-a1ee878e3d4f" d="m1606.42,1208.7c-6.5.11-12.84,1.3-19.23,2.28,3.08-4.81,8.16-9.25,11.46-12.08,5.62-4.82-2.52-12.92-8.11-8.14-4.96,4.25-11.26,10.45-14.79,17.28-.48.07-.93.2-1.36.39-2.1-5.86-5.86-10.92-8.94-16.5-3.57-6.48-13.47-.68-9.9,5.81,2.42,4.39,6.6,9.08,8.22,14.1-5.21.27-10.42.66-15.64.71-7.37.07-7.39,11.57,0,11.51,4.02-.04,8.04-.28,12.05-.51-2.64,2.51-5.16,5.14-7.51,7.95-1.99,2.38-2.33,5.8,0,8.14,2.04,2.05,6.11,2.39,8.11,0,3.31-3.97,6.97-7.59,10.82-10.99.28,6.47,1.27,12.9,1.4,19.38.15,7.39,11.62,7.42,11.46,0-.11-5.37-.81-10.7-1.21-16.06,5.77,2.01,11.05,4.86,16.02,8.47,2.53,1.84,6.36.42,7.84-2.06,1.72-2.88.44-6.06-2.06-7.87-4.77-3.47-9.93-6.24-15.38-8.39,5.55-.88,11.09-1.8,16.72-1.89,7.37-.12,7.39-11.63,0-11.51Z"/>
              <path class="uuid-becb5deb-a3cd-4c71-8d2f-a1ee878e3d4f" d="m1510.02,1208.7c-6.5.11-12.84,1.3-19.23,2.28,3.08-4.81,8.16-9.25,11.46-12.08,5.62-4.82-2.52-12.92-8.11-8.14-4.96,4.25-11.26,10.45-14.79,17.28-.48.07-.93.2-1.36.39-2.1-5.86-5.86-10.92-8.94-16.5-1.77-3.22-5.1-3.4-7.57-1.99v11.52c2.21,3.3,4.72,6.75,5.9,10.38-1.97.1-3.93.22-5.9.33v11.5c.77-.04,1.54-.08,2.31-.13-.79.75-1.54,1.53-2.31,2.31v15.37c1.12-.18,2.16-.69,2.91-1.59,3.31-3.97,6.97-7.59,10.82-10.99.28,6.48,1.27,12.9,1.4,19.38.15,7.39,11.62,7.42,11.46,0-.11-5.37-.81-10.7-1.21-16.06,5.77,2.01,11.05,4.86,16.02,8.47,2.53,1.84,6.36.42,7.84-2.06,1.72-2.88.44-6.06-2.06-7.87-4.77-3.47-9.93-6.24-15.38-8.39,5.55-.88,11.09-1.8,16.72-1.89,7.37-.12,7.39-11.63,0-11.51Z"/>
            </g>
          </g>
          <path class="uuid-7b59c5a6-d72e-45eb-af58-3e1abf624091" d="m1668.19,1209.52c-12.56-16.73-32.27-40.23-53.22-54.88,12.93-17.71,22.83-35.42,28.94-46.24,6.8-12.02,12.64-27.58,16.97-43.76.61,9.87,1.46,20.79,1.46,32.89,0,23.22,5.19,58.13,5.85,111.98Z"/>
          <polygon class="uuid-d38dae41-1edd-4f5b-b88b-bf889d5177f0" points="1669.42 1247.75 1663.67 1277.09 1728.18 1254.27 1806.52 1222.77 1782.32 1194.52 1669.42 1247.75"/>
          <g>
            <path class="uuid-a080f403-265e-4bcc-9f14-189f51461b8e" d="m1611.14,850.57l-13.5,11.67c-.75-6.96-2.93-10.17-3.76-12.55,3.36-.05,7.26-.02,10.37.25l6.89.63Z"/>
            <path class="uuid-a8135a37-339d-4e6e-b8ad-37a4c644d324" d="m1595.49,794.64c0,3.11-2.58,5.64-5.76,5.64s-5.76-2.52-5.76-5.64,2.58-5.64,5.76-5.64,5.76,2.52,5.76,5.64Z"/>
            <path class="uuid-a8135a37-339d-4e6e-b8ad-37a4c644d324" d="m1608.64,778.25c-2,.32-3.95.4-5.87.35-1.93-.02-3.82-.19-5.7-.43-3.75-.5-7.44-1.32-11.05-2.51l1.51-.23c-2.95,1.23-5.97,2.32-9.33,2.82,2.15-2.63,4.64-4.67,7.2-6.57l.46-.34,1.05.11c3.78.38,7.48,1.12,11.12,2.19,1.82.54,3.62,1.15,5.39,1.91,1.77.73,3.52,1.59,5.22,2.7Z"/>
            <path class="uuid-a080f403-265e-4bcc-9f14-189f51461b8e" d="m1652.04,800.74c-.13-.32-.17-.65-.09-.99.44-2.07,2.5-9.67,9.03-10.75,7.57-1.25,13.41,6.68,10.49,11.27-2.25,3.54-10.04,8.07-13.49,9.96-.89.49-2,.09-2.39-.85l-3.54-8.63Z"/>
          </g>
        </g>
        <g id="uuid-8954effa-ca88-4a7c-95a8-9a8318a634b8" data-name="man3">
          <g>
            <g>
              <path class="uuid-3e96d27f-329d-43c0-9412-39761597b2f4" d="m592.86,1751.93s-18.3,19.9-5.78,36.95c12.52,17.05,37.56,18,40.45,16.11,2.89-1.9,45.26-79.59,45.26-79.59l-34.67-45.48-45.26,72.01Z"/>
              <path class="uuid-3e96d27f-329d-43c0-9412-39761597b2f4" d="m786.75,1695.58l-51.04,10.42,20.16,97.99,48.22,10.97s6.25-13.67,5.29-17.46c-.96-3.79-22.62-101.93-22.62-101.93Z"/>
            </g>
            <g>
              <path class="uuid-7b59c5a6-d72e-45eb-af58-3e1abf624091" d="m796.81,1332.97c-22.03-13.91-54.17-15.92-76.68-21.48-42.4-10.48-84.42-20.37-127.4-27.9-4.88-.85-44.61-46.79-29.26-79.87l-183.87,79.8c-9.73,7.4,94.37,73.74,104.61,80.41l67.51,43.97c14.54,9.47,111.01,104.56,112.07,105.14,0,0,12.45,14.1,9.37,22.36l-47.94,128.37c-2.17,5.8-20.17,57.76-16.3,62.61l44.78,33.7c7.88,9.88,35.82-22.58,41.93-33.63l2.9-5.24s74.07-119.74,74.5-121.67c8.55-38.37,17.11-76.73,25.66-115.1,7.18-32.22,32.45-97.49,17.77-129.61-4.37-9.57-11.28-16.57-19.66-21.86Z"/>
              <path class="uuid-84cb7e16-42ca-4e7d-a5d3-3e42e807456b" d="m772.38,1419.93c-1.03-1.55-4.24-7.7-7.06-13.19-3.15-6.14-7.99-11.18-13.91-14.47l-207.1-115.12c-4.09-2.27-8.58-3.65-13.21-4.06l-129.62-11.37c-15.06-1.32-29.21,7.77-34.56,22.38-10.56,28.83-18.45,80.14,23.49,136.81,36.7,49.59,146.24,66.41,273.37,92.14,6.16,1.25,42.35,151.26,42.35,151.26.18.65.34,1.3.48,1.95l9.88,45.75c3.81,17.64,25.05,45.38,42.41,43.14,17.48-2.26,36.61-5.11,40.21-7.15,6.89-3.93,13.64-37.58,11.67-57.2-1.97-19.63-36.43-267.92-38.4-270.86Z"/>
              <path class="uuid-d4f18ec5-f9bb-4de3-b043-03d6e5184b5c" d="m666.95,1894.07c-25.41.31-113.5-69.03-113.48-88.38,0-5.68,37.04-66.42,46.78-66.42s1.2,19.07,11.83,32.84c9.89,12.83,28.44,11.44,28.44,11.44,0,0,12.75,29.83,14.73,39.81,1.85,9.39,17.8,33.67,20.68,51.88,2.55,16.06-1.44,18.74-8.98,18.83Z"/>
              <path class="uuid-d4f18ec5-f9bb-4de3-b043-03d6e5184b5c" d="m876.56,1876.66c-.76,6.56-4.58,23.14-23.75,23.86-22.12.81-103.44-68.33-103.44-68.33-1.39-1.37-2.14-3.31-2.05-5.3l1.96-38.44c1.59-13.58,19.61-.85,28.28.76.54.11,1.05.17,1.5.17,10.83.2,19-5.4,23.62-9.65,2.66-2.46,6.69-2.31,9.15.37,6.43,6.99,18.13,20.53,27.63,35.93.48.78,1.02,1.66,1.61,2.59,8.85,14.19,29.13,45.37,34.39,53.45.87,1.35,1.26,2.96,1.09,4.58Z"/>
            </g>
            <path class="uuid-4049694f-3f07-4473-86d0-2f9473ca4cf9" d="m841.08,1818.63c-1.57,9.35-4.31,17.26-8.93,20.64-15.04,10.98-30.51-12.77-45.04-33.58-4.36-6.28-7.41-11.81-9.54-16.47.54.11,1.05.17,1.5.17,10.83.2,19-5.4,23.62-9.65,2.66-2.46,6.69-2.31,9.15.37,6.43,6.99,18.13,20.53,27.63,35.93.48.78,1.02,1.66,1.61,2.59Z"/>
            <path class="uuid-4049694f-3f07-4473-86d0-2f9473ca4cf9" d="m655.25,1823.36c-8.85,17.21,0,0-27.5-8.39-27.5-8.39-15.67-42.86-15.67-42.86,9.89,12.83,28.44,11.44,28.44,11.44,0,0,12.75,29.83,14.73,39.81Z"/>
          </g>
          <path class="uuid-d38dae41-1edd-4f5b-b88b-bf889d5177f0" d="m958.34,1086.37h-74.65c-.83,0-1.53,2.16-2.2,3.6-7.8-5.06-14.99-4.64-21.49-2.68-.96.31-1.92.63-2.85.98-8.76,3.31-14.27,9.15-14.8,21.79-.48,12.03,4.1,26.52,15.25,31.7.31.15.61.28.92.41,6.21,2.92,11.68,5.75,16.39,8.39,7.26,4.05,12.75,7.65,16.47,10.26.09.07.15.11.24.17,3.4,3.55,7.39,4.84,11.74,6.78h37.07c4.42-1.39,8.3-3.84,11.57-6.95,3.05-2.9,5.58-6.41,7.58-10.26,3.4-6.56,5.19-14.1,5.19-21.4v-23.9c0-7.32-2.85-15.38-6.43-18.89Zm-94.68,44.19c-.13-.07-.24-.11-.37-.17-4.73-2.18-7.63-10.9-7.26-19.85.31-7.15,3.42-12.86,6.99-14.21,2.53-.94,6.65-.04,11.2,2.42,1.96,1.07,4.01,2.42,6.06,4.05-.04.81.22,32.55.92,35.58-4.6-2.53-11.68-5.14-17.54-7.82Z"/>
          <g>
            <path class="uuid-3e96d27f-329d-43c0-9412-39761597b2f4" d="m842.69,1082.49c-6.51.91-17.65,8.28-32.07,12.78-8.57,2.67-20.25,1.84-28.31.73-5.46-.75-10.68,2.46-12.44,7.69l-.66,1.98c-2.01,5.99,1.21,12.47,7.2,14.48,8.49,2.85,20.76,6.99,32.31,10.99,16.19,5.61,27.08,10.61,30.91,12.45,1.04.5,2.14.84,3.28,1.01l11.97,1.77.71-.51c2.07-1.48,3.3-3.71,3.46-6.06.16-2.28.79-4.51,2.23-6.29l5.07-6.29c2.73-3.51,3.17-8.29,1.14-12.24l-.49-.95c-3.82-7.43,10.68.86,10.23-6.82-.96-16.47-28.03-25.63-34.54-24.72Z"/>
            <path class="uuid-3e96d27f-329d-43c0-9412-39761597b2f4" d="m724.93,895.75c-.11-.38-.22-.75-.33-1.12-2.78-8.98-8.82-22.26-17.75-26.57-12.43-6-33.05-11.98-41.4,14.89-2.24,7.2,10.53,3.98,10.53,3.98-9.09,2.39-7.02,10.07-1.76,10.57,2.6-1.27,5.66-2.02,9.2-2.02,6.83,0,8.25,2.22,8.92,8.41.88,8.18,1.9,16.42,1.23,24.66-.66,8.06-2.59,16.07-4.73,23.86,3.43,2.38,19.06,3.21,23.38,1.75l4.52-1.52c5.15-1.73,8.81-6.32,9.31-11.73,1.33-14.32,2.9-31.04-1.12-45.16Z"/>
          </g>
          <g>
            <path class="uuid-980edb9e-9dcb-457a-96dd-77b58adbc0fe" d="m678.44,783.55c-.32-.42-.64-.83-.96-1.24.15-.86.29-1.73.46-2.58,2.26-11.51,1.67-31.98,1.17-36.21-1.68-14.14-15.94-40.68-15.94-40.68l-49.42,19.06-28.97,30.32s-33.94,47-34.77,49.28c-.83,2.27-9.11,24.26-9.11,24.26,0,0,13.74,26.86-15.47,46.48-13.61,9.14,41.13-1.75,58.51,24.78,7.83,11.95,10.95,17.12,12.02,19.21,4.23-4.86,22.85-55.72,32.16-58.56,9.91-3.03,37-3.92,40.38-12.86,4.41-11.67,5.3-25.8,6.43-40.15,5.66-.24,13.1-.88,13.77-3.7,1.28-5.4-7.28-13.48-10.27-17.41Z"/>
            <g class="uuid-8eafbc64-1e22-431a-8cb3-79f664b1ceb3">
              <g>
                <g>
                  <path class="uuid-d38dae41-1edd-4f5b-b88b-bf889d5177f0" d="m667.63,763.15s15.12-8.02,15.73-5.3c.61,2.72-14.1,12.53-15.73,10.9-1.63-1.63,0-5.6,0-5.6Z"/>
                  <ellipse class="uuid-d38dae41-1edd-4f5b-b88b-bf889d5177f0" cx="671.02" cy="778.01" rx="4.12" ry="4.36"/>
                  <path class="uuid-d38dae41-1edd-4f5b-b88b-bf889d5177f0" d="m661.25,825.39c-2.74,2.94,4.13,7.95,13.55,8.69,9.42.74-3.97-4.54-3.97-4.54,0,0-7.8-6.05-9.58-4.14Z"/>
                </g>
                <path class="uuid-a080f403-265e-4bcc-9f14-189f51461b8e" d="m579.02,797.26c.73-7.99,8.72-15.62,11.98-10.9,3.27,4.72,2.91,7.99,3.63,13.8.73,5.81,0,12.71,0,12.71,0,0-16.34-7.63-15.62-15.62Z"/>
              </g>
            </g>
          </g>
          <path class="uuid-d38dae41-1edd-4f5b-b88b-bf889d5177f0" d="m630.11,662.63c-10.43-1-20.32-1.17-28.34-.95-24.96.69-51.77,5.69-68.96,23.8-21.32,22.46-20.89,55.8-21.06,84.7-.09,14.47,3.25,28.67,8.95,41.96,4.03,9.39,6.85,20.22,11.93,29.53,3.19,5.84,10.49,4.36,16.27,4.53,5.83.17,46.35,7.39,42.5-5.28-4.14-13.65-8.28-20.47-13.24-25.78-4.97-5.31-11.59-17.44-8.28-25.02,0,0,5.21-17.66,17.62-15.38,12.42,2.27,18.8,11.59,18.8,19.17v.16c0,8.8,6.94,16.03,15.73,16.4h.22c1.32.06,2.69.11,3.94-.29,1.79-.57,3.12-1.98,4.35-3.33,6.08-6.62,12.53-14.24,11.87-22.97-.46-6.05-4.31-11.39-5.72-17.3-2.45-10.26,2.64-20.64,7.59-30.06.87-1.65,1.81-3.38,3.46-4.37,6.64-3.96,17.1,5.72,23.94,1.87,13.13-6.7,36.4-21.35,27.58-38.76-11.03-21.76-41.95-30.03-69.17-32.64Z"/>
          <g>
            <path class="uuid-94e48fa1-321b-4e2b-9a93-a4407d96b651" d="m682.25,940.16l-39.48,151.04h75.12s14.45-132.05,9.63-140.19c-4.82-8.14-45.26-10.85-45.26-10.85Z"/>
            <path class="uuid-94e48fa1-321b-4e2b-9a93-a4407d96b651" d="m595.46,878.46l-44.82-18.52c-9.06-3.74-19.51-2.81-27.64,2.49-20.56,13.41-59.52,43.7-85.36,94.01-60.6,118.02-103.95,318.16-45.48,318.25,22.17.03,189.79,32.54,186.9-9.07-2.87-41.3,1.05-96.72,3.93-136.45.04-.6.06-1.19.06-1.8v-1.33c0-.93.05-1.83.15-2.75,1.03-9.27,7.18-63.18,13.33-85.46,5.11-18.51,12.43-53.64,15.68-69.57.65-3.19,2.25-6.06,3.95-8.9,1.08-1.81,2.05-6.56,1.57-18.32-.57-13.83-3.46-31.09-5.75-42.97-1.68-8.72-7.88-16.06-16.51-19.63Z"/>
            <path class="uuid-94e48fa1-321b-4e2b-9a93-a4407d96b651" d="m698.68,1068.92c-7.16-1.18-13.22-5.57-16.27-11.76-7.56-15.33-21.97-45.97-30.96-74.11-12.63-39.55-43.57-67.98-57.08-73.48-13.52-5.5-39.46-5.45-60.2,9.14-31.69,22.29-29.61,47.68-30.15,58.68-.54,10.99,96.01,135.9,117.53,149.49,16.42,10.37,120.87,16.93,169.46,19.46,13.34.69,24.3-9.74,23.38-22.26-1.11-15.12-8.04-30.9-10.29-32.88-3.32-2.91-75.86-17.4-105.42-22.28Z"/>
          </g>
          <g class="uuid-0783ebf6-a6ec-4ece-9ede-e15f549ebbc9">
            <g>
              <g>
                <polygon class="uuid-d4f18ec5-f9bb-4de3-b043-03d6e5184b5c" points="554.98 962.12 539.52 939.91 548.8 933.67 564.26 955.87 554.98 962.12"/>
                <g>
                  <polygon class="uuid-d4f18ec5-f9bb-4de3-b043-03d6e5184b5c" points="574.17 918.81 558.71 896.6 568 890.36 583.46 912.56 574.17 918.81"/>
                  <g>
                    <polygon class="uuid-d4f18ec5-f9bb-4de3-b043-03d6e5184b5c" points="559.92 1046.7 544.46 1024.5 553.74 1018.25 569.21 1040.46 559.92 1046.7"/>
                    <polygon class="uuid-d4f18ec5-f9bb-4de3-b043-03d6e5184b5c" points="541.28 1085.84 525.82 1063.63 535.1 1057.39 550.57 1079.59 541.28 1085.84"/>
                    <g>
                      <path class="uuid-d4f18ec5-f9bb-4de3-b043-03d6e5184b5c" d="m417.11,830.73l-.81.54c-1.53,3.75-3.06,7.49-4.63,11.22l11.62,16.69,9.29-6.25-15.46-22.21Z"/>
                      <polygon class="uuid-d4f18ec5-f9bb-4de3-b043-03d6e5184b5c" points="465.57 865.03 450.11 842.83 459.4 836.58 474.86 858.79 465.57 865.03"/>
                      <polygon class="uuid-d4f18ec5-f9bb-4de3-b043-03d6e5184b5c" points="507.86 870.88 492.4 848.68 501.68 842.43 517.14 864.64 507.86 870.88"/>
                      <polygon class="uuid-d4f18ec5-f9bb-4de3-b043-03d6e5184b5c" points="550.14 876.73 534.68 854.53 543.97 848.28 559.43 870.49 550.14 876.73"/>
                      <path class="uuid-d4f18ec5-f9bb-4de3-b043-03d6e5184b5c" d="m395.49,881.7l9.54,13.71,9.29-6.25-13.89-19.95c-1.67,4.16-3.31,8.32-4.94,12.5Z"/>
                      <polygon class="uuid-d4f18ec5-f9bb-4de3-b043-03d6e5184b5c" points="447.32 901.26 431.86 879.05 441.15 872.8 456.61 895.01 447.32 901.26"/>
                      <polygon class="uuid-d4f18ec5-f9bb-4de3-b043-03d6e5184b5c" points="489.6 907.11 474.14 884.9 483.43 878.65 498.89 900.86 489.6 907.11"/>
                      <polygon class="uuid-d4f18ec5-f9bb-4de3-b043-03d6e5184b5c" points="531.89 912.96 516.43 890.75 525.71 884.51 541.18 906.71 531.89 912.96"/>
                      <path class="uuid-d4f18ec5-f9bb-4de3-b043-03d6e5184b5c" d="m378.36,927.97l7.48,10.75,9.29-6.25-12.15-17.45c-1.56,4.31-3.1,8.63-4.62,12.95Z"/>
                      <polygon class="uuid-d4f18ec5-f9bb-4de3-b043-03d6e5184b5c" points="428.12 944.57 412.66 922.36 421.95 916.11 437.41 938.32 428.12 944.57"/>
                      <polygon class="uuid-d4f18ec5-f9bb-4de3-b043-03d6e5184b5c" points="470.41 950.42 454.95 928.21 464.23 921.96 479.7 944.17 470.41 950.42"/>
                      <polygon class="uuid-d4f18ec5-f9bb-4de3-b043-03d6e5184b5c" points="512.69 956.27 497.23 934.06 506.52 927.82 521.98 950.02 512.69 956.27"/>
                      <path class="uuid-d4f18ec5-f9bb-4de3-b043-03d6e5184b5c" d="m366.57,962.73c-1.13,3.48-2.22,6.98-3.34,10.47l3.85,5.52,9.29-6.25-8.83-12.68c-.32.98-.65,1.95-.97,2.93Z"/>
                      <polygon class="uuid-d4f18ec5-f9bb-4de3-b043-03d6e5184b5c" points="409.37 984.58 393.91 962.37 403.19 956.12 418.65 978.33 409.37 984.58"/>
                      <polygon class="uuid-d4f18ec5-f9bb-4de3-b043-03d6e5184b5c" points="451.65 990.43 436.19 968.22 445.48 961.97 460.94 984.18 451.65 990.43"/>
                      <polygon class="uuid-d4f18ec5-f9bb-4de3-b043-03d6e5184b5c" points="493.94 996.28 478.47 974.07 487.76 967.83 503.22 990.03 493.94 996.28"/>
                      <polygon class="uuid-d4f18ec5-f9bb-4de3-b043-03d6e5184b5c" points="536.22 1002.13 520.76 979.92 530.05 973.68 545.51 995.88 536.22 1002.13"/>
                      <path class="uuid-d4f18ec5-f9bb-4de3-b043-03d6e5184b5c" d="m350.13,1016.35l7.65-5.15-4.35-6.25c-1.12,3.79-2.21,7.6-3.3,11.4Z"/>
                      <polygon class="uuid-d4f18ec5-f9bb-4de3-b043-03d6e5184b5c" points="390.78 1023.3 375.32 1001.09 384.61 994.85 400.07 1017.05 390.78 1023.3"/>
                      <polygon class="uuid-d4f18ec5-f9bb-4de3-b043-03d6e5184b5c" points="433.07 1029.15 417.6 1006.95 426.89 1000.7 442.35 1022.9 433.07 1029.15"/>
                      <polygon class="uuid-d4f18ec5-f9bb-4de3-b043-03d6e5184b5c" points="475.35 1035 459.89 1012.8 469.18 1006.55 484.64 1028.75 475.35 1035"/>
                      <polygon class="uuid-d4f18ec5-f9bb-4de3-b043-03d6e5184b5c" points="517.64 1040.85 502.17 1018.65 511.46 1012.4 526.92 1034.61 517.64 1040.85"/>
                      <polygon class="uuid-d4f18ec5-f9bb-4de3-b043-03d6e5184b5c" points="372.14 1062.43 356.68 1040.23 365.97 1033.98 381.43 1056.19 372.14 1062.43"/>
                      <polygon class="uuid-d4f18ec5-f9bb-4de3-b043-03d6e5184b5c" points="414.43 1068.29 398.96 1046.08 408.25 1039.83 423.71 1062.04 414.43 1068.29"/>
                      <polygon class="uuid-d4f18ec5-f9bb-4de3-b043-03d6e5184b5c" points="456.71 1074.14 441.25 1051.93 450.54 1045.68 466 1067.89 456.71 1074.14"/>
                      <polygon class="uuid-d4f18ec5-f9bb-4de3-b043-03d6e5184b5c" points="498.99 1079.99 483.53 1057.78 492.82 1051.53 508.28 1073.74 498.99 1079.99"/>
                      <polygon class="uuid-d4f18ec5-f9bb-4de3-b043-03d6e5184b5c" points="353.48 1101.74 338.02 1079.54 347.3 1073.29 362.77 1095.5 353.48 1101.74"/>
                      <polygon class="uuid-d4f18ec5-f9bb-4de3-b043-03d6e5184b5c" points="395.76 1107.59 380.3 1085.39 389.59 1079.14 405.05 1101.35 395.76 1107.59"/>
                      <polygon class="uuid-d4f18ec5-f9bb-4de3-b043-03d6e5184b5c" points="438.05 1113.45 422.59 1091.24 431.87 1084.99 447.33 1107.2 438.05 1113.45"/>
                      <polygon class="uuid-d4f18ec5-f9bb-4de3-b043-03d6e5184b5c" points="480.33 1119.3 464.87 1097.09 474.16 1090.84 489.62 1113.05 480.33 1119.3"/>
                      <polygon class="uuid-d4f18ec5-f9bb-4de3-b043-03d6e5184b5c" points="522.62 1125.15 507.15 1102.94 516.44 1096.69 531.9 1118.9 522.62 1125.15"/>
                    </g>
                    <polygon class="uuid-d4f18ec5-f9bb-4de3-b043-03d6e5184b5c" points="564.9 1131 549.44 1108.79 558.73 1102.55 574.19 1124.75 564.9 1131"/>
                  </g>
                  <g>
                    <polygon class="uuid-d4f18ec5-f9bb-4de3-b043-03d6e5184b5c" points="862.25 1089.75 846.79 1067.55 856.08 1061.3 871.54 1083.5 862.25 1089.75"/>
                    <polygon class="uuid-d4f18ec5-f9bb-4de3-b043-03d6e5184b5c" points="843.61 1128.89 828.15 1106.68 837.44 1100.43 852.9 1122.64 843.61 1128.89"/>
                    <g>
                      <polygon class="uuid-d4f18ec5-f9bb-4de3-b043-03d6e5184b5c" points="641.06 890.53 625.59 868.32 634.88 862.07 650.34 884.28 641.06 890.53"/>
                      <polygon class="uuid-d4f18ec5-f9bb-4de3-b043-03d6e5184b5c" points="683.34 896.38 667.88 874.17 677.16 867.92 692.63 890.13 683.34 896.38"/>
                      <polygon class="uuid-d4f18ec5-f9bb-4de3-b043-03d6e5184b5c" points="725.62 902.23 710.16 880.02 719.45 873.78 734.91 895.98 725.62 902.23"/>
                      <path class="uuid-d4f18ec5-f9bb-4de3-b043-03d6e5184b5c" d="m758.39,881.88l-5.94,4,15.46,22.21,4.7-3.16c-4.95-7.55-9.7-15.22-14.21-23.04Z"/>
                      <polygon class="uuid-d4f18ec5-f9bb-4de3-b043-03d6e5184b5c" points="665.09 932.6 649.62 910.4 658.91 904.15 674.37 926.35 665.09 932.6"/>
                      <polygon class="uuid-d4f18ec5-f9bb-4de3-b043-03d6e5184b5c" points="707.37 938.45 691.91 916.25 701.2 910 716.66 932.2 707.37 938.45"/>
                      <polygon class="uuid-d4f18ec5-f9bb-4de3-b043-03d6e5184b5c" points="749.66 944.3 734.19 922.1 743.48 915.85 758.94 938.06 749.66 944.3"/>
                      <path class="uuid-d4f18ec5-f9bb-4de3-b043-03d6e5184b5c" d="m784.57,922.51l-8.09,5.44,15.46,22.2,8.51-5.73c-5.39-7.25-10.7-14.55-15.89-21.92Z"/>
                      <polygon class="uuid-d4f18ec5-f9bb-4de3-b043-03d6e5184b5c" points="603.61 970.06 588.15 947.85 597.43 941.61 612.89 963.81 603.61 970.06"/>
                      <polygon class="uuid-d4f18ec5-f9bb-4de3-b043-03d6e5184b5c" points="645.89 975.91 630.43 953.7 639.72 947.46 655.18 969.66 645.89 975.91"/>
                      <polygon class="uuid-d4f18ec5-f9bb-4de3-b043-03d6e5184b5c" points="688.18 981.76 672.71 959.56 682 953.31 697.46 975.51 688.18 981.76"/>
                      <polygon class="uuid-d4f18ec5-f9bb-4de3-b043-03d6e5184b5c" points="730.46 987.61 715 965.41 724.28 959.16 739.75 981.37 730.46 987.61"/>
                      <polygon class="uuid-d4f18ec5-f9bb-4de3-b043-03d6e5184b5c" points="772.74 993.46 757.28 971.26 766.57 965.01 782.03 987.22 772.74 993.46"/>
                      <polygon class="uuid-d4f18ec5-f9bb-4de3-b043-03d6e5184b5c" points="815.03 999.31 799.57 977.11 808.85 970.86 824.32 993.07 815.03 999.31"/>
                      <polygon class="uuid-d4f18ec5-f9bb-4de3-b043-03d6e5184b5c" points="584.85 1010.07 569.39 987.86 578.68 981.62 594.14 1003.82 584.85 1010.07"/>
                      <polygon class="uuid-d4f18ec5-f9bb-4de3-b043-03d6e5184b5c" points="627.13 1015.92 611.67 993.72 620.96 987.47 636.42 1009.67 627.13 1015.92"/>
                      <polygon class="uuid-d4f18ec5-f9bb-4de3-b043-03d6e5184b5c" points="711.7 1027.62 696.24 1005.42 705.53 999.17 720.99 1021.38 711.7 1027.62"/>
                      <polygon class="uuid-d4f18ec5-f9bb-4de3-b043-03d6e5184b5c" points="753.99 1033.47 738.53 1011.27 747.81 1005.02 763.27 1027.23 753.99 1033.47"/>
                      <polygon class="uuid-d4f18ec5-f9bb-4de3-b043-03d6e5184b5c" points="796.27 1039.33 780.81 1017.12 790.1 1010.87 805.56 1033.08 796.27 1039.33"/>
                      <polygon class="uuid-d4f18ec5-f9bb-4de3-b043-03d6e5184b5c" points="838.56 1045.18 823.09 1022.97 832.38 1016.72 847.84 1038.93 838.56 1045.18"/>
                      <polygon class="uuid-d4f18ec5-f9bb-4de3-b043-03d6e5184b5c" points="608.55 1054.64 593.09 1032.44 602.37 1026.19 617.84 1048.4 608.55 1054.64"/>
                      <polygon class="uuid-d4f18ec5-f9bb-4de3-b043-03d6e5184b5c" points="650.83 1060.5 635.37 1038.29 644.66 1032.04 660.12 1054.25 650.83 1060.5"/>
                      <polygon class="uuid-d4f18ec5-f9bb-4de3-b043-03d6e5184b5c" points="693.12 1066.35 677.66 1044.14 686.94 1037.89 702.4 1060.1 693.12 1066.35"/>
                      <polygon class="uuid-d4f18ec5-f9bb-4de3-b043-03d6e5184b5c" points="777.69 1078.05 762.22 1055.84 771.51 1049.6 786.97 1071.8 777.69 1078.05"/>
                      <polygon class="uuid-d4f18ec5-f9bb-4de3-b043-03d6e5184b5c" points="819.97 1083.9 804.51 1061.7 813.8 1055.45 829.26 1077.65 819.97 1083.9"/>
                      <polygon class="uuid-d4f18ec5-f9bb-4de3-b043-03d6e5184b5c" points="589.91 1093.78 574.45 1071.57 583.73 1065.33 599.2 1087.53 589.91 1093.78"/>
                      <polygon class="uuid-d4f18ec5-f9bb-4de3-b043-03d6e5184b5c" points="632.19 1099.63 616.73 1077.42 626.02 1071.18 641.48 1093.38 632.19 1099.63"/>
                      <polygon class="uuid-d4f18ec5-f9bb-4de3-b043-03d6e5184b5c" points="674.48 1105.48 659.02 1083.28 668.3 1077.03 683.76 1099.23 674.48 1105.48"/>
                      <polygon class="uuid-d4f18ec5-f9bb-4de3-b043-03d6e5184b5c" points="716.76 1111.33 701.3 1089.13 710.59 1082.88 726.05 1105.08 716.76 1111.33"/>
                      <polygon class="uuid-d4f18ec5-f9bb-4de3-b043-03d6e5184b5c" points="759.05 1117.18 743.58 1094.98 752.87 1088.73 768.33 1110.94 759.05 1117.18"/>
                      <polygon class="uuid-d4f18ec5-f9bb-4de3-b043-03d6e5184b5c" points="801.33 1123.03 785.87 1100.83 795.16 1094.58 810.62 1116.79 801.33 1123.03"/>
                      <polygon class="uuid-d4f18ec5-f9bb-4de3-b043-03d6e5184b5c" points="655.81 1144.79 640.35 1122.58 649.64 1116.34 665.1 1138.54 655.81 1144.79"/>
                      <polygon class="uuid-d4f18ec5-f9bb-4de3-b043-03d6e5184b5c" points="698.1 1150.64 682.64 1128.44 691.92 1122.19 707.39 1144.39 698.1 1150.64"/>
                      <polygon class="uuid-d4f18ec5-f9bb-4de3-b043-03d6e5184b5c" points="740.38 1156.49 724.92 1134.29 734.21 1128.04 749.67 1150.24 740.38 1156.49"/>
                      <polygon class="uuid-d4f18ec5-f9bb-4de3-b043-03d6e5184b5c" points="782.67 1162.34 767.21 1140.14 776.49 1133.89 791.95 1156.1 782.67 1162.34"/>
                      <polygon class="uuid-d4f18ec5-f9bb-4de3-b043-03d6e5184b5c" points="824.95 1168.19 809.49 1145.99 818.78 1139.74 834.24 1161.95 824.95 1168.19"/>
                    </g>
                    <polygon class="uuid-d4f18ec5-f9bb-4de3-b043-03d6e5184b5c" points="867.24 1174.05 851.77 1151.84 861.06 1145.59 876.52 1167.8 867.24 1174.05"/>
                  </g>
                </g>
              </g>
              <g>
                <polygon class="uuid-d4f18ec5-f9bb-4de3-b043-03d6e5184b5c" points="554.55 1256.45 539.09 1234.24 548.37 1228 563.83 1250.2 554.55 1256.45"/>
                <g>
                  <polygon class="uuid-d4f18ec5-f9bb-4de3-b043-03d6e5184b5c" points="592 1176.92 576.53 1154.71 585.82 1148.46 601.28 1170.67 592 1176.92"/>
                  <g>
                    <polygon class="uuid-d4f18ec5-f9bb-4de3-b043-03d6e5184b5c" points="573.74 1213.14 558.28 1190.93 567.57 1184.69 583.03 1206.89 573.74 1213.14"/>
                    <g>
                      <path class="uuid-d4f18ec5-f9bb-4de3-b043-03d6e5184b5c" d="m564.94,1337.37l3.83-2.58-15.46-22.21-9.29,6.25,12.96,18.61c2.65-.02,5.31-.05,7.96-.07Z"/>
                      <g>
                        <path class="uuid-d4f18ec5-f9bb-4de3-b043-03d6e5184b5c" d="m324.12,1118.74c-.15.69-.29,1.39-.44,2.08l14.62,20.99,9.29-6.25-15.46-22.21-8,5.38Z"/>
                        <polygon class="uuid-d4f18ec5-f9bb-4de3-b043-03d6e5184b5c" points="380.57 1147.66 365.11 1125.45 374.4 1119.21 389.86 1141.41 380.57 1147.66"/>
                        <polygon class="uuid-d4f18ec5-f9bb-4de3-b043-03d6e5184b5c" points="422.86 1153.51 407.4 1131.31 416.68 1125.06 432.15 1147.26 422.86 1153.51"/>
                        <polygon class="uuid-d4f18ec5-f9bb-4de3-b043-03d6e5184b5c" points="465.14 1159.36 449.68 1137.16 458.97 1130.91 474.43 1153.11 465.14 1159.36"/>
                        <polygon class="uuid-d4f18ec5-f9bb-4de3-b043-03d6e5184b5c" points="507.43 1165.21 491.97 1143.01 501.25 1136.76 516.71 1158.97 507.43 1165.21"/>
                        <polygon class="uuid-d4f18ec5-f9bb-4de3-b043-03d6e5184b5c" points="549.71 1171.06 534.25 1148.86 543.54 1142.61 559 1164.82 549.71 1171.06"/>
                        <path class="uuid-d4f18ec5-f9bb-4de3-b043-03d6e5184b5c" d="m313.95,1169.3l6.08,8.74,9.29-6.25-12.46-17.9c-1,5.13-1.96,10.27-2.91,15.41Z"/>
                        <polygon class="uuid-d4f18ec5-f9bb-4de3-b043-03d6e5184b5c" points="362.32 1183.88 346.86 1161.68 356.15 1155.43 371.61 1177.64 362.32 1183.88"/>
                        <polygon class="uuid-d4f18ec5-f9bb-4de3-b043-03d6e5184b5c" points="404.61 1189.73 389.14 1167.53 398.43 1161.28 413.89 1183.49 404.61 1189.73"/>
                        <polygon class="uuid-d4f18ec5-f9bb-4de3-b043-03d6e5184b5c" points="446.89 1195.59 431.43 1173.38 440.72 1167.13 456.18 1189.34 446.89 1195.59"/>
                        <polygon class="uuid-d4f18ec5-f9bb-4de3-b043-03d6e5184b5c" points="489.17 1201.44 473.71 1179.23 483 1172.98 498.46 1195.19 489.17 1201.44"/>
                        <polygon class="uuid-d4f18ec5-f9bb-4de3-b043-03d6e5184b5c" points="531.46 1207.29 516 1185.08 525.28 1178.84 540.75 1201.04 531.46 1207.29"/>
                        <path class="uuid-d4f18ec5-f9bb-4de3-b043-03d6e5184b5c" d="m305.82,1217.99l4.31-2.9-3.18-4.56c-.39,2.49-.76,4.97-1.13,7.46Z"/>
                        <polygon class="uuid-d4f18ec5-f9bb-4de3-b043-03d6e5184b5c" points="343.13 1227.19 327.66 1204.99 336.95 1198.74 352.41 1220.94 343.13 1227.19"/>
                        <polygon class="uuid-d4f18ec5-f9bb-4de3-b043-03d6e5184b5c" points="385.41 1233.04 369.95 1210.84 379.24 1204.59 394.7 1226.8 385.41 1233.04"/>
                        <polygon class="uuid-d4f18ec5-f9bb-4de3-b043-03d6e5184b5c" points="427.69 1238.9 412.23 1216.69 421.52 1210.44 436.98 1232.65 427.69 1238.9"/>
                        <polygon class="uuid-d4f18ec5-f9bb-4de3-b043-03d6e5184b5c" points="469.98 1244.75 454.52 1222.54 463.8 1216.29 479.27 1238.5 469.98 1244.75"/>
                        <polygon class="uuid-d4f18ec5-f9bb-4de3-b043-03d6e5184b5c" points="512.26 1250.6 496.8 1228.39 506.09 1222.14 521.55 1244.35 512.26 1250.6"/>
                        <polygon class="uuid-d4f18ec5-f9bb-4de3-b043-03d6e5184b5c" points="324.37 1267.2 308.91 1245 318.2 1238.75 333.66 1260.96 324.37 1267.2"/>
                        <polygon class="uuid-d4f18ec5-f9bb-4de3-b043-03d6e5184b5c" points="366.65 1273.05 351.19 1250.85 360.48 1244.6 375.94 1266.81 366.65 1273.05"/>
                        <polygon class="uuid-d4f18ec5-f9bb-4de3-b043-03d6e5184b5c" points="408.94 1278.91 393.48 1256.7 402.76 1250.45 418.23 1272.66 408.94 1278.91"/>
                        <polygon class="uuid-d4f18ec5-f9bb-4de3-b043-03d6e5184b5c" points="451.22 1284.76 435.76 1262.55 445.05 1256.3 460.51 1278.51 451.22 1284.76"/>
                        <polygon class="uuid-d4f18ec5-f9bb-4de3-b043-03d6e5184b5c" points="493.51 1290.61 478.05 1268.4 487.33 1262.16 502.79 1284.36 493.51 1290.61"/>
                        <polygon class="uuid-d4f18ec5-f9bb-4de3-b043-03d6e5184b5c" points="535.79 1296.46 520.33 1274.25 529.62 1268.01 545.08 1290.21 535.79 1296.46"/>
                        <path class="uuid-d4f18ec5-f9bb-4de3-b043-03d6e5184b5c" d="m298.02,1278.54c-.5,4.71-1.01,9.41-1.47,14.12l9.24,13.26,9.29-6.25-15.46-22.2-1.59,1.07Z"/>
                        <polygon class="uuid-d4f18ec5-f9bb-4de3-b043-03d6e5184b5c" points="348.07 1311.78 332.61 1289.57 341.89 1283.33 357.36 1305.53 348.07 1311.78"/>
                        <polygon class="uuid-d4f18ec5-f9bb-4de3-b043-03d6e5184b5c" points="390.35 1317.63 374.89 1295.42 384.18 1289.18 399.64 1311.38 390.35 1317.63"/>
                        <polygon class="uuid-d4f18ec5-f9bb-4de3-b043-03d6e5184b5c" points="432.64 1323.48 417.18 1301.28 426.46 1295.03 441.92 1317.23 432.64 1323.48"/>
                        <polygon class="uuid-d4f18ec5-f9bb-4de3-b043-03d6e5184b5c" points="474.92 1329.33 459.46 1307.13 468.75 1300.88 484.21 1323.08 474.92 1329.33"/>
                        <polygon class="uuid-d4f18ec5-f9bb-4de3-b043-03d6e5184b5c" points="517.21 1335.18 501.74 1312.98 511.03 1306.73 526.49 1328.94 517.21 1335.18"/>
                        <path class="uuid-d4f18ec5-f9bb-4de3-b043-03d6e5184b5c" d="m335.12,1339.5l-11.86-17.04-9.29,6.25,7.87,11.3c4.43-.18,8.85-.35,13.28-.51Z"/>
                        <path class="uuid-d4f18ec5-f9bb-4de3-b043-03d6e5184b5c" d="m372.58,1338.42l-7.04-10.11-9.29,6.25,2.91,4.18c4.47-.12,8.94-.23,13.41-.32Z"/>
                        <path class="uuid-d4f18ec5-f9bb-4de3-b043-03d6e5184b5c" d="m410.49,1338l-2.67-3.83-5.75,3.87c2.81-.01,5.62-.02,8.42-.04Z"/>
                      </g>
                    </g>
                    <g>
                      <polygon class="uuid-d4f18ec5-f9bb-4de3-b043-03d6e5184b5c" points="640.63 1184.86 625.16 1162.65 634.45 1156.4 649.91 1178.61 640.63 1184.86"/>
                      <polygon class="uuid-d4f18ec5-f9bb-4de3-b043-03d6e5184b5c" points="682.91 1190.71 667.45 1168.5 676.74 1162.25 692.2 1184.46 682.91 1190.71"/>
                      <polygon class="uuid-d4f18ec5-f9bb-4de3-b043-03d6e5184b5c" points="725.19 1196.56 709.73 1174.35 719.02 1168.1 734.48 1190.31 725.19 1196.56"/>
                      <polygon class="uuid-d4f18ec5-f9bb-4de3-b043-03d6e5184b5c" points="767.48 1202.41 752.02 1180.2 761.3 1173.96 776.77 1196.16 767.48 1202.41"/>
                      <polygon class="uuid-d4f18ec5-f9bb-4de3-b043-03d6e5184b5c" points="809.76 1208.26 794.3 1186.05 803.59 1179.81 819.05 1202.01 809.76 1208.26"/>
                      <polygon class="uuid-d4f18ec5-f9bb-4de3-b043-03d6e5184b5c" points="852.05 1214.11 836.59 1191.91 845.87 1185.66 861.33 1207.86 852.05 1214.11"/>
                      <polygon class="uuid-d4f18ec5-f9bb-4de3-b043-03d6e5184b5c" points="622.37 1221.08 606.91 1198.87 616.2 1192.63 631.66 1214.83 622.37 1221.08"/>
                      <polygon class="uuid-d4f18ec5-f9bb-4de3-b043-03d6e5184b5c" points="664.66 1226.93 649.2 1204.72 658.48 1198.48 673.94 1220.68 664.66 1226.93"/>
                      <polygon class="uuid-d4f18ec5-f9bb-4de3-b043-03d6e5184b5c" points="706.94 1232.78 691.48 1210.58 700.77 1204.33 716.23 1226.53 706.94 1232.78"/>
                      <polygon class="uuid-d4f18ec5-f9bb-4de3-b043-03d6e5184b5c" points="749.23 1238.63 733.76 1216.43 743.05 1210.18 758.51 1232.38 749.23 1238.63"/>
                      <polygon class="uuid-d4f18ec5-f9bb-4de3-b043-03d6e5184b5c" points="791.51 1244.48 776.05 1222.28 785.34 1216.03 800.8 1238.24 791.51 1244.48"/>
                      <polygon class="uuid-d4f18ec5-f9bb-4de3-b043-03d6e5184b5c" points="833.79 1250.33 818.33 1228.13 827.62 1221.88 843.08 1244.09 833.79 1250.33"/>
                      <polygon class="uuid-d4f18ec5-f9bb-4de3-b043-03d6e5184b5c" points="603.18 1264.39 587.72 1242.18 597 1235.94 612.46 1258.14 603.18 1264.39"/>
                      <polygon class="uuid-d4f18ec5-f9bb-4de3-b043-03d6e5184b5c" points="645.46 1270.24 630 1248.03 639.29 1241.79 654.75 1263.99 645.46 1270.24"/>
                      <polygon class="uuid-d4f18ec5-f9bb-4de3-b043-03d6e5184b5c" points="687.75 1276.09 672.28 1253.89 681.57 1247.64 697.03 1269.84 687.75 1276.09"/>
                      <polygon class="uuid-d4f18ec5-f9bb-4de3-b043-03d6e5184b5c" points="730.03 1281.94 714.57 1259.74 723.86 1253.49 739.32 1275.69 730.03 1281.94"/>
                      <polygon class="uuid-d4f18ec5-f9bb-4de3-b043-03d6e5184b5c" points="772.31 1287.79 756.85 1265.59 766.14 1259.34 781.6 1281.55 772.31 1287.79"/>
                      <polygon class="uuid-d4f18ec5-f9bb-4de3-b043-03d6e5184b5c" points="814.6 1293.64 799.14 1271.44 808.42 1265.19 823.89 1287.4 814.6 1293.64"/>
                      <polygon class="uuid-d4f18ec5-f9bb-4de3-b043-03d6e5184b5c" points="584.42 1304.4 568.96 1282.19 578.25 1275.95 593.71 1298.15 584.42 1304.4"/>
                      <polygon class="uuid-d4f18ec5-f9bb-4de3-b043-03d6e5184b5c" points="626.7 1310.25 611.24 1288.04 620.53 1281.8 635.99 1304 626.7 1310.25"/>
                      <polygon class="uuid-d4f18ec5-f9bb-4de3-b043-03d6e5184b5c" points="668.99 1316.1 653.53 1293.9 662.81 1287.65 678.28 1309.85 668.99 1316.1"/>
                      <polygon class="uuid-d4f18ec5-f9bb-4de3-b043-03d6e5184b5c" points="711.27 1321.95 695.81 1299.75 705.1 1293.5 720.56 1315.71 711.27 1321.95"/>
                      <polygon class="uuid-d4f18ec5-f9bb-4de3-b043-03d6e5184b5c" points="753.56 1327.8 738.1 1305.6 747.38 1299.35 762.84 1321.56 753.56 1327.8"/>
                      <path class="uuid-d4f18ec5-f9bb-4de3-b043-03d6e5184b5c" d="m802.27,1329.33l2.86-1.92-15.46-22.2-9.29,6.25,12.48,17.93c3.14-.03,6.27-.05,9.41-.05Z"/>
                      <path class="uuid-d4f18ec5-f9bb-4de3-b043-03d6e5184b5c" d="m845.72,1330.83l-13.77-19.78-9.29,6.25,8.84,12.69c4.74.22,9.48.5,14.22.84Z"/>
                      <path class="uuid-d4f18ec5-f9bb-4de3-b043-03d6e5184b5c" d="m613.25,1336.76l-11.31-16.24-9.29,6.25,7.1,10.19c4.5-.07,9-.13,13.5-.2Z"/>
                      <path class="uuid-d4f18ec5-f9bb-4de3-b043-03d6e5184b5c" d="m640.65,1336.21c3.41-.08,6.82-.18,10.22-.29l-6.65-9.55-9.29,6.25,2.55,3.66c1.06-.02,2.11-.04,3.17-.06Z"/>
                    </g>
                  </g>
                </g>
              </g>
            </g>
          </g>
        </g>
      </g>
    </g>
  </g>
</svg>